<?xml version="1.0" standalone="no"?>
<!DOCTYPE svg PUBLIC "-//W3C//DTD SVG 20010904//EN"
 "http://www.w3.org/TR/2001/REC-SVG-20010904/DTD/svg10.dtd">
<svg version="1.0" xmlns="http://www.w3.org/2000/svg"
 width="654.000000pt" height="1280.000000pt" viewBox="0 0 654.000000 1280.000000"
 preserveAspectRatio="xMidYMid meet">

<g transform="translate(0.000000,1280.000000) scale(0.100000,-0.100000)"
fill="#000000" stroke="none">
<path d="M0 6400 l0 -6400 3270 0 3270 0 0 6400 0 6400 -3270 0 -3270 0 0
-6400z m750 5907 l5 -89 24 26 c26 27 61 35 61 14 -1 -7 -25 -38 -55 -68 l-54
-55 -56 55 c-53 52 -68 80 -43 80 7 0 27 -14 45 -32 l33 -32 0 98 c0 87 2 97
18 94 14 -3 18 -18 22 -91z m940 53 l0 -30 -70 0 -70 0 0 -45 0 -45 65 0 c63
0 65 -1 65 -25 0 -24 -2 -25 -65 -25 l-65 0 0 -60 0 -60 -35 0 -35 0 0 160 0
160 105 0 105 0 0 -30z m230 15 c28 -15 50 -42 50 -64 0 -16 -58 -13 -67 3
-14 25 -57 29 -82 9 -31 -25 -18 -50 33 -64 106 -28 139 -68 112 -134 -19 -44
-42 -55 -114 -55 -53 0 -64 4 -92 30 -36 33 -37 63 -2 68 15 2 30 -5 43 -22
35 -45 117 -29 107 21 -2 12 -23 23 -64 36 -34 10 -71 27 -83 38 -23 22 -28
68 -10 100 23 44 115 62 169 34z m238 -88 c18 -56 32 -108 32 -114 0 -7 5 -13
10 -13 6 0 10 6 10 13 0 6 14 58 31 115 l32 102 49 0 48 0 0 -160 0 -160 -30
0 -30 0 0 123 -1 122 -40 -122 c-39 -120 -41 -123 -70 -123 -16 0 -29 1 -29 3
0 1 -18 54 -40 117 l-40 115 0 -117 0 -118 -30 0 -30 0 0 160 0 160 48 0 47 0
33 -103z m333 76 c6 -16 25 -77 44 -138 l33 -110 12 45 c6 25 24 86 39 135 27
87 29 90 60 93 17 2 31 0 31 -5 0 -4 -23 -77 -51 -160 l-51 -153 -42 0 -42 0
-52 153 c-29 83 -52 155 -52 160 0 4 14 7 30 7 24 0 33 -6 41 -27z m329 -133
l0 -160 -30 0 -30 0 0 160 0 160 30 0 30 0 0 -160z m211 150 c128 -36 151
-220 37 -290 -26 -15 -51 -20 -110 -20 l-78 0 0 160 0 160 58 0 c31 0 73 -5
93 -10z m2929 -90 c0 -6 -41 -10 -104 -10 -59 0 -108 4 -111 10 -4 6 33 10
104 10 67 0 111 -4 111 -10z m0 -70 c0 -6 -44 -10 -111 -10 -71 0 -108 4 -104
10 3 6 52 10 111 10 63 0 104 -4 104 -10z m-5380 -90 c0 -61 1 -62 165 -58
l120 3 5 50 c4 37 9 51 23 53 14 3 17 -5 17 -52 0 -84 -4 -86 -185 -86 -148 0
-154 1 -169 22 -16 22 -22 99 -9 111 3 4 12 7 20 7 9 0 13 -15 13 -50z m5378
18 c-3 -9 -34 -14 -98 -16 -98 -3 -125 1 -115 18 10 16 218 13 213 -2z m-808
-1058 c109 -48 181 -117 226 -214 94 -206 2 -452 -206 -550 l-65 -31 -1835 0
-1835 0 -65 31 c-82 39 -161 117 -202 202 -52 106 -51 254 3 362 46 94 144
178 242 209 61 20 99 20 1872 18 l1810 -2 55 -25z m-1790 -1399 c5 -11 10 -26
10 -35 0 -21 -28 -46 -52 -46 -26 0 -58 27 -58 48 0 46 79 71 100 33z m2298 7
c17 -17 15 -54 -4 -72 -24 -24 -61 -20 -80 9 -15 23 -15 27 0 50 18 27 63 34
84 13z m-4840 -55 l3 -43 -110 0 -111 0 0 -65 0 -65 98 0 99 0 1 -40 2 -40
-100 0 -100 0 0 -95 0 -95 -50 0 -50 0 0 245 0 246 158 -3 157 -3 3 -42z
m1512 29 c37 -18 80 -74 80 -103 0 -16 -8 -19 -45 -19 -38 0 -50 5 -69 27 -42
49 -136 33 -136 -23 0 -29 30 -50 93 -64 110 -24 159 -69 161 -144 1 -54 -18
-91 -63 -119 -30 -18 -51 -22 -121 -22 -121 0 -173 34 -187 121 l-6 34 52 0
c33 0 51 -4 51 -12 0 -6 10 -22 22 -35 27 -29 101 -32 130 -6 33 29 23 62 -24
83 -24 11 -52 20 -63 20 -42 1 -123 48 -140 81 -21 40 -15 111 11 140 52 58
180 79 254 41z m1595 -222 l0 -235 -52 -3 -53 -3 0 241 0 241 53 -3 52 -3 0
-235z m437 95 c26 -77 47 -150 48 -162 0 -44 17 -31 29 23 7 30 30 105 52 166
21 62 39 113 39 115 0 2 34 3 75 3 l75 0 0 -240 0 -240 -51 0 -50 0 3 175 c2
96 2 175 1 175 -1 0 -7 -19 -13 -42 -7 -24 -33 -103 -58 -175 l-47 -133 -45 0
-46 0 -57 168 -56 167 -1 -167 0 -168 -50 0 -50 0 0 240 0 241 77 -3 77 -3 48
-140z m1128 -105 l0 -240 -50 0 c-48 0 -50 1 -50 27 0 27 0 27 -15 6 -8 -12
-31 -27 -49 -33 -73 -24 -149 22 -176 106 -19 55 -7 157 21 199 46 67 142 84
195 34 l24 -22 0 81 0 82 50 0 50 0 0 -240z m-4530 104 l0 -26 31 26 c20 17
43 26 65 26 34 0 34 0 34 -45 l0 -45 -40 0 c-27 0 -45 -6 -60 -22 -18 -19 -20
-35 -20 -140 l0 -118 -50 0 -50 0 0 185 0 185 45 0 c42 0 45 -2 45 -26z m382
14 c53 -16 86 -61 98 -134 6 -33 10 -60 10 -61 0 -2 -57 -3 -126 -3 -125 0
-125 0 -119 -22 12 -40 54 -71 89 -64 17 4 36 14 43 22 9 13 22 15 57 10 26
-4 46 -12 46 -17 0 -5 -15 -25 -32 -44 -58 -61 -157 -71 -229 -22 -52 35 -74
81 -74 157 0 144 101 219 237 178z m398 -4 c49 -20 85 -76 95 -146 l7 -48
-126 0 c-73 0 -126 -4 -126 -10 0 -23 24 -59 47 -69 35 -16 60 -14 83 9 20 20
47 25 88 14 29 -8 28 -17 -8 -57 -74 -85 -226 -67 -284 33 -29 49 -29 150 0
205 39 74 136 104 224 69z m994 -7 c49 -27 75 -70 82 -134 13 -104 -35 -186
-121 -207 -90 -23 -172 10 -209 84 -48 94 -8 228 79 266 48 21 124 17 169 -9z
m393 4 c25 -12 48 -32 57 -50 25 -47 21 -58 -24 -64 -35 -4 -44 -1 -69 24 -34
34 -63 37 -90 10 -37 -37 -40 -134 -4 -173 26 -29 79 -24 100 10 9 15 18 28
19 30 1 2 20 -2 43 -8 49 -13 53 -32 14 -79 -55 -65 -183 -72 -247 -13 -39 37
-56 81 -56 147 0 87 31 142 98 172 41 17 112 15 159 -6z m238 -166 l0 -180
-50 0 -50 0 -2 170 c-1 94 0 176 2 183 3 9 20 12 52 10 l48 -3 0 -180z m304
171 c67 -24 76 -49 76 -209 l0 -142 -47 -3 c-43 -3 -48 -1 -48 18 l0 21 -26
-20 c-40 -32 -85 -36 -137 -13 -38 17 -47 27 -56 59 -21 79 23 136 117 148 95
13 117 28 87 59 -23 23 -81 21 -98 -4 -11 -15 -21 -18 -50 -13 -45 7 -51 14
-36 47 25 55 137 82 218 52z m1318 3 c61 -23 92 -69 108 -161 l6 -38 -126 0
c-80 0 -125 -4 -125 -10 0 -25 31 -68 52 -74 39 -10 57 -7 77 15 17 18 27 20
65 15 l46 -7 -14 -27 c-33 -64 -110 -93 -193 -73 -60 15 -88 38 -113 93 -73
160 62 326 217 267z m678 -174 l0 -180 -47 -3 -48 -3 0 186 0 186 48 -3 47 -3
0 -180z m313 165 c62 -28 72 -59 72 -220 l0 -130 -50 0 c-44 0 -50 3 -50 21
l0 20 -26 -20 c-38 -30 -83 -35 -131 -16 -34 14 -45 25 -58 59 -15 39 -15 47
-2 79 18 43 55 63 128 73 69 9 90 19 82 42 -4 9 -11 20 -17 24 -20 14 -66 8
-85 -11 -14 -14 -27 -17 -56 -12 -47 7 -52 19 -24 55 45 57 138 72 217 36z
m-5027 -681 c8 -16 8 -28 0 -45 -20 -45 -101 -27 -101 22 0 42 81 60 101 23z
m-449 -147 c25 -81 52 -169 60 -197 l14 -50 22 85 c12 46 39 135 58 197 l36
113 54 0 c30 0 54 -2 54 -5 0 -5 -144 -429 -155 -458 -6 -15 -18 -17 -72 -15
l-66 3 -29 85 c-16 47 -49 141 -73 210 -24 69 -47 137 -50 153 -7 27 -7 27 46
27 l54 0 47 -148z m2144 133 c53 -15 100 -57 128 -112 26 -51 21 -186 -8 -243
-43 -85 -111 -112 -268 -108 l-103 3 -3 225 c-1 123 0 230 2 237 8 19 188 17
252 -2z m1674 -225 l0 -240 -50 0 -50 0 0 240 0 240 50 0 50 0 0 -240z m-2955
-10 l0 -235 -47 -3 c-47 -3 -48 -3 -48 27 l0 29 -29 -29 c-36 -36 -98 -40
-149 -9 -96 59 -96 270 0 330 47 30 123 23 155 -14 l23 -27 0 86 0 86 48 -3
47 -3 0 -235z m4155 0 l0 -240 -50 0 c-49 0 -50 1 -50 29 l0 29 -29 -29 c-35
-34 -83 -39 -138 -12 -52 24 -87 105 -80 182 9 106 54 161 136 169 40 3 52 0
79 -23 l32 -27 0 81 0 81 50 0 50 0 0 -240z m-4568 -50 l3 -180 -50 0 -50 0 0
180 0 180 47 0 47 0 3 -180z m736 161 c46 -24 72 -67 81 -137 l8 -54 -124 0
c-69 0 -123 -4 -123 -9 0 -68 90 -103 139 -54 14 14 74 13 89 -2 11 -11 -19
-56 -50 -75 -44 -27 -140 -27 -188 -1 -124 65 -115 281 14 337 44 19 111 17
154 -5z m410 -7 c94 -69 95 -248 2 -314 -46 -33 -128 -38 -182 -11 -65 31 -93
80 -93 160 0 89 25 138 85 169 56 29 145 27 188 -4z m1036 -8 c47 -35 70 -100
63 -171 -7 -74 -33 -115 -87 -142 -89 -46 -196 -16 -237 67 -54 105 -6 246 92
273 11 3 46 4 78 2 43 -2 66 -10 91 -29z m214 -53 c11 -49 24 -105 28 -126 3
-21 9 -36 11 -33 4 4 63 231 63 242 0 2 20 4 45 4 50 0 44 11 81 -155 17 -78
34 -118 34 -80 0 10 12 67 26 127 l26 108 49 0 c27 0 49 -4 49 -9 0 -5 -22
-84 -50 -176 -27 -92 -50 -169 -50 -172 0 -2 -23 -3 -52 -1 l-51 3 -19 65
c-10 36 -24 88 -30 115 l-11 50 -10 -35 c-6 -19 -20 -71 -32 -115 l-23 -80
-50 -3 -51 -3 -21 73 c-12 40 -35 116 -51 169 -16 53 -29 101 -29 108 0 7 19
11 49 11 l49 0 20 -87z m562 56 l0 -30 23 26 c30 35 99 45 146 20 50 -25 61
-64 61 -215 l0 -130 -50 0 -50 0 0 124 c0 118 -1 126 -22 140 -32 22 -55 20
-83 -9 -24 -23 -25 -30 -25 -140 l0 -115 -50 0 -50 0 0 180 0 180 50 0 c49 0
50 -1 50 -31z m748 4 c52 -38 72 -80 72 -150 0 -35 -6 -79 -14 -97 -41 -97
-189 -127 -271 -54 -98 85 -72 268 45 317 40 17 136 8 168 -16z m400 -1 c41
-30 54 -84 50 -222 l-3 -115 -45 0 c-38 0 -45 3 -48 21 -3 22 -3 22 -27 -2
-45 -45 -164 -25 -185 32 -18 45 -12 93 14 119 25 25 82 45 132 45 16 0 38 6
48 13 15 11 17 17 7 35 -18 34 -57 39 -93 12 -23 -17 -39 -21 -65 -17 -20 4
-38 9 -41 12 -10 10 34 60 69 78 46 24 145 18 187 -11z m778 9 c49 -22 84 -84
84 -149 l0 -42 -120 0 c-66 0 -120 -3 -120 -7 1 -29 17 -56 41 -68 38 -20 62
-19 93 6 21 17 34 19 67 14 l40 -7 -18 -30 c-58 -100 -242 -89 -297 17 -25 49
-27 145 -4 190 46 87 141 118 234 76z m244 -10 l0 -29 29 29 c20 19 40 29 60
29 30 0 31 -1 31 -45 l0 -45 -38 0 c-65 0 -76 -22 -80 -156 l-4 -114 -44 0
-44 0 0 180 0 180 45 0 c43 0 45 -1 45 -29z m-5545 -1087 c38 -18 59 -60 58
-113 -1 -85 -45 -121 -143 -121 l-51 0 2 118 c0 64 3 120 6 125 8 13 94 7 128
-9z m785 -109 c0 -104 -2 -125 -15 -125 -13 0 -15 21 -15 125 0 104 2 125 15
125 13 0 15 -21 15 -125z m580 0 c0 -104 -2 -125 -15 -125 -8 0 -15 5 -15 12
0 9 -3 9 -12 0 -7 -7 -27 -12 -45 -12 -27 0 -37 6 -53 33 -29 47 -26 93 9 128
29 29 64 38 76 19 13 -22 25 -8 25 30 0 29 4 40 15 40 13 0 15 -21 15 -125z
m368 108 c5 -17 -26 -29 -40 -15 -6 6 -7 15 -3 22 9 14 37 9 43 -7z m192 -108
c0 -104 -2 -125 -15 -125 -8 0 -15 5 -15 10 0 7 -6 7 -19 0 -58 -31 -111 11
-111 87 0 70 48 104 113 78 14 -6 17 -1 17 34 0 30 4 41 15 41 13 0 15 -21 15
-125z m825 105 c0 -8 -8 -16 -17 -18 -13 -2 -18 3 -18 18 0 15 5 20 18 18 9
-2 17 -10 17 -18z m1795 -105 c0 -104 -2 -125 -15 -125 -8 0 -15 5 -15 12 0 9
-3 9 -12 0 -7 -7 -27 -12 -44 -12 -84 0 -102 151 -22 179 18 7 38 7 53 1 24
-9 25 -8 25 30 0 29 4 40 15 40 13 0 15 -21 15 -125z m348 82 c3 -34 5 -36 28
-27 26 10 61 -1 76 -24 4 -6 8 -44 8 -83 0 -58 -3 -73 -15 -73 -12 0 -15 14
-15 63 0 34 -4 67 -8 73 -11 17 -35 22 -54 12 -15 -7 -18 -22 -18 -78 0 -63
-2 -70 -20 -70 -19 0 -20 7 -20 118 0 65 3 122 7 126 14 14 28 -2 31 -37z
m522 4 c0 -10 9 -21 20 -24 11 -3 20 -10 20 -16 0 -6 -9 -11 -20 -11 -18 0
-20 -7 -20 -64 0 -55 3 -64 20 -69 26 -7 26 -27 1 -27 -46 0 -51 9 -51 86 0
59 -3 74 -15 74 -8 0 -15 5 -15 10 0 6 7 13 15 16 8 4 15 15 15 25 0 10 7 19
15 19 8 0 15 -8 15 -19z m-5190 -41 c46 -34 42 -137 -5 -158 -67 -31 -125 6
-125 78 0 77 74 122 130 80z m100 -32 c20 -84 26 -88 40 -26 7 31 16 62 20 69
15 23 37 1 49 -48 18 -66 23 -80 26 -68 2 6 11 36 20 68 10 36 21 57 30 57 20
0 19 -8 -11 -106 -20 -68 -29 -84 -45 -84 -10 0 -19 6 -19 13 0 21 -32 123
-36 112 -1 -5 -10 -36 -19 -68 -22 -81 -42 -74 -72 23 -26 87 -28 110 -9 110
9 0 19 -20 26 -52z m270 43 c0 -6 12 -6 30 1 24 8 35 7 55 -6 23 -15 25 -22
25 -96 0 -64 -3 -80 -15 -80 -12 0 -15 13 -15 59 0 77 -6 91 -40 91 -34 0 -40
-14 -40 -91 0 -50 -3 -59 -17 -59 -16 0 -18 9 -16 72 1 40 2 83 3 96 0 21 30
34 30 13z m345 -3 c29 -13 55 -55 55 -88 0 -78 -92 -119 -145 -65 -44 43 -27
132 29 155 29 12 31 12 61 -2z m212 -10 c9 -7 13 -38 13 -87 l0 -77 -57 -2
c-67 -2 -83 9 -83 54 0 38 24 54 81 54 33 0 40 23 11 39 -13 7 -27 6 -46 -5
-31 -15 -48 -11 -40 11 12 31 89 40 121 13z m397 -46 c11 -34 23 -62 27 -62 4
0 17 29 29 65 13 39 27 65 36 65 20 0 18 -19 -17 -109 -42 -109 -56 -109 -98
5 -36 99 -37 107 -14 102 11 -2 24 -25 37 -66z m176 -27 c0 -78 -3 -95 -15
-95 -12 0 -15 17 -15 95 0 78 3 95 15 95 12 0 15 -17 15 -95z m378 59 c12 -14
22 -36 22 -50 0 -23 -3 -24 -65 -24 -36 0 -65 -3 -65 -6 0 -3 5 -14 10 -25 11
-20 64 -27 75 -9 9 15 35 12 35 -5 0 -19 -31 -35 -70 -35 -47 0 -80 38 -80 92
1 48 15 73 51 87 32 13 59 5 87 -25z m188 7 c56 -54 21 -161 -53 -161 -80 0
-113 101 -53 161 35 35 70 35 106 0z m185 2 c19 -23 -5 -40 -27 -19 -21 21
-49 17 -49 -8 0 -13 12 -23 40 -33 59 -20 70 -48 35 -83 -33 -33 -120 -21
-120 15 0 18 21 20 37 4 16 -16 57 -7 61 13 2 12 -7 20 -36 28 -49 13 -66 32
-58 65 10 40 89 53 117 18z m269 -68 c0 -78 -3 -95 -15 -95 -12 0 -15 16 -15
88 0 49 3 92 7 95 18 19 23 -1 23 -88z m80 81 c0 -13 4 -13 27 -1 23 12 31 12
48 1 12 -8 27 -11 36 -6 38 20 58 21 78 1 18 -18 21 -34 21 -96 0 -59 -3 -75
-15 -75 -11 0 -15 17 -17 73 l-3 72 -30 0 -30 0 -3 -73 c-2 -63 -5 -73 -20
-70 -14 3 -18 17 -20 76 -3 67 -4 72 -25 72 -37 0 -47 -19 -47 -87 0 -49 -3
-63 -15 -63 -12 0 -15 17 -15 95 0 78 3 95 15 95 8 0 15 -6 15 -14z m370 -4
c19 -15 23 -30 26 -94 l4 -75 -57 -1 c-32 0 -65 4 -74 8 -51 28 -10 100 56
100 24 0 35 5 35 15 0 25 -34 35 -65 19 -39 -20 -54 -2 -19 25 33 26 65 27 94
3z m165 9 c11 -5 25 -4 32 1 24 20 33 -4 33 -92 0 -113 -9 -136 -56 -149 -48
-13 -114 10 -94 34 10 12 15 12 36 -2 32 -20 74 -4 74 28 0 18 -2 19 -15 9 -9
-8 -28 -10 -51 -6 -29 6 -38 14 -50 43 -23 55 -5 115 41 133 24 11 25 11 50 1z
m240 -25 c7 -11 17 -33 20 -48 l7 -28 -66 0 c-47 0 -66 -4 -66 -13 0 -34 52
-49 90 -25 29 18 39 -1 11 -23 -71 -58 -161 15 -131 107 20 60 104 79 135 30z
m173 10 c23 -23 5 -39 -23 -20 -19 12 -28 13 -45 4 -27 -14 -13 -35 29 -43 32
-7 61 -31 61 -53 0 -24 -38 -54 -71 -54 -38 0 -69 16 -69 35 0 18 21 20 37 4
15 -15 57 -7 61 12 2 11 -10 19 -36 27 -50 15 -66 34 -58 67 11 43 80 55 114
21z m346 13 c29 -14 36 -34 36 -116 0 -49 -3 -63 -15 -63 -8 0 -15 5 -15 12 0
9 -3 9 -12 0 -17 -17 -68 -15 -90 5 -21 19 -24 56 -5 72 8 6 29 14 48 17 53 9
59 12 53 28 -8 21 -40 26 -64 9 -16 -11 -25 -12 -32 -5 -14 14 5 39 35 45 12
2 25 5 29 6 4 0 18 -4 32 -10z m116 0 c0 -5 11 -4 25 1 30 11 70 -1 79 -25 3
-9 6 -48 6 -86 0 -55 -3 -69 -15 -69 -12 0 -15 13 -15 59 0 77 -6 91 -40 91
-34 0 -40 -14 -40 -91 0 -44 -4 -59 -14 -59 -11 0 -15 20 -18 91 -2 50 -2 92
0 93 6 6 32 2 32 -5z m568 -13 c23 -23 5 -38 -23 -20 -27 18 -65 11 -65 -12 0
-15 6 -18 52 -28 31 -7 58 -31 58 -52 0 -50 -92 -72 -132 -32 -21 21 -22 23
-4 26 10 2 22 -1 26 -8 10 -17 64 -8 68 11 2 12 -10 20 -42 29 -48 13 -63 34
-51 71 12 38 81 47 113 15z m355 13 c62 -28 69 -141 11 -167 -40 -19 -73 -14
-99 14 -46 49 -22 145 38 157 12 2 23 5 24 6 1 0 13 -4 26 -10z m122 1 c4 -7
12 -7 18 -2 19 13 41 9 45 -10 2 -12 -5 -17 -25 -20 -28 -3 -28 -4 -31 -75 -3
-65 -5 -73 -22 -73 -18 0 -20 7 -20 88 0 49 3 92 7 95 9 10 21 9 28 -3z m314
-15 c23 -22 3 -37 -24 -19 -14 9 -32 13 -41 10 -27 -10 -11 -37 30 -51 59 -20
71 -50 36 -85 -33 -33 -120 -21 -120 15 0 17 26 20 35 5 3 -5 19 -10 36 -10
22 0 29 5 29 20 0 14 -11 22 -40 30 -48 13 -72 49 -49 76 28 34 77 38 108 9z
m-3023 -152 c-3 -10 -8 -30 -12 -45 -3 -16 -13 -28 -21 -28 -11 0 -14 6 -9 23
3 12 6 32 6 45 0 16 6 22 21 22 15 0 19 -5 15 -17z m1300 0 c-3 -10 -8 -30
-12 -45 -3 -16 -13 -28 -21 -28 -11 0 -14 6 -9 23 3 12 6 32 6 45 0 16 6 22
21 22 15 0 19 -5 15 -17z m-3636 -303 c0 -6 -11 -15 -25 -20 -30 -11 -33 -40
-5 -40 11 0 20 -6 20 -14 0 -9 -7 -12 -20 -9 -19 5 -20 0 -20 -76 0 -75 -1
-81 -21 -81 -18 0 -20 6 -19 58 3 92 1 102 -15 102 -8 0 -15 5 -15 10 0 6 9
10 21 10 11 0 17 4 14 10 -13 21 24 60 55 60 17 0 30 -5 30 -10z m2530 -9 c0
-22 -21 -33 -40 -21 -18 11 -4 40 20 40 13 0 20 -7 20 -19z m-1746 -44 l29
-52 25 53 c23 45 30 52 55 52 l29 0 -20 -32 c-59 -95 -72 -125 -72 -165 0 -36
-3 -43 -20 -43 -17 0 -20 7 -20 45 0 42 -17 80 -76 170 -16 25 -16 25 12 25
24 0 34 -9 58 -53z m696 33 c0 -16 -7 -20 -35 -20 l-35 0 0 -100 0 -100 -25 0
-25 0 0 100 0 100 -35 0 c-28 0 -35 4 -35 20 0 19 7 20 95 20 88 0 95 -1 95
-20z m258 -19 c-3 -34 -1 -38 14 -30 70 38 132 -46 99 -134 -13 -35 -67 -52
-98 -32 -12 9 -23 11 -23 5 0 -5 -9 -10 -20 -10 -19 0 -20 7 -20 120 l0 120
26 0 c24 0 26 -3 22 -39z m710 22 c-2 -12 -14 -19 -36 -21 l-32 -3 0 -100 c0
-99 0 -99 -25 -99 l-25 0 0 100 0 100 -35 0 c-28 0 -35 4 -35 20 0 19 7 20 96
20 86 0 95 -2 92 -17z m163 -10 c1 -16 1 -46 1 -68 l-1 -40 32 38 c19 22 41
37 55 37 29 0 28 -11 -3 -40 -32 -30 -31 -42 5 -96 l31 -44 -24 0 c-16 0 -34
12 -51 35 -31 40 -50 37 -44 -6 4 -25 1 -29 -19 -29 -23 0 -23 1 -23 120 0
113 1 120 20 120 15 0 20 -7 21 -27z m309 7 c0 -16 -7 -20 -35 -20 l-35 0 0
-100 0 -100 -25 0 -25 0 0 100 0 100 -35 0 c-28 0 -35 4 -35 20 0 19 7 20 95
20 88 0 95 -1 95 -20z m250 -40 c0 -33 2 -60 5 -60 3 0 18 14 33 31 20 22 35
30 52 27 l24 -3 -33 -37 -33 -38 37 -50 37 -50 -29 0 c-21 0 -34 9 -52 35 -27
39 -41 37 -41 -6 0 -23 -4 -29 -22 -29 -23 0 -23 1 -20 120 3 111 5 120 23
120 17 0 19 -7 19 -60z m480 40 c0 -18 -7 -20 -55 -20 l-55 0 0 -35 0 -35 50
0 c37 0 50 -4 50 -14 0 -11 -14 -16 -47 -18 l-48 -3 -3 -47 c-3 -43 -5 -48
-28 -48 l-24 0 0 120 0 120 80 0 c73 0 80 -2 80 -20z m646 -12 c-1 -33 0 -33
40 -30 35 3 45 -1 63 -24 23 -29 27 -79 10 -118 -14 -29 -63 -50 -88 -37 -9 5
-29 7 -44 4 l-27 -5 0 121 c0 121 0 121 24 121 20 0 23 -5 22 -32z m604 -30
l0 -62 33 32 c18 18 43 32 55 32 22 0 22 -1 -9 -40 -32 -39 -32 -39 -14 -67
52 -80 50 -73 22 -73 -18 0 -31 10 -47 35 -25 40 -40 38 -40 -6 0 -24 -4 -29
-25 -29 l-25 0 0 120 0 120 25 0 c24 0 25 -3 25 -62z m-4780 -14 c0 -8 -8 -14
-18 -14 -31 0 -42 -22 -42 -87 0 -56 -2 -63 -20 -63 -19 0 -20 7 -20 89 l0 89
50 0 c37 1 50 -3 50 -14z m155 -9 c18 -17 25 -35 25 -63 0 -102 -118 -137
-156 -46 -40 95 62 179 131 109z m95 13 c0 -9 3 -9 12 0 18 18 65 15 72 -4 6
-16 8 -16 24 0 10 9 30 16 45 16 40 0 57 -33 57 -112 0 -61 -2 -68 -20 -68
-17 0 -19 8 -22 72 -3 63 -6 73 -22 76 -30 6 -46 -26 -46 -90 0 -45 -3 -58
-15 -58 -12 0 -15 14 -15 70 0 56 -3 72 -16 77 -34 13 -49 -11 -52 -81 -2 -50
-6 -66 -17 -66 -12 0 -15 18 -15 90 0 73 3 90 15 90 8 0 15 -5 15 -12z m685
-13 c48 -47 21 -150 -40 -156 -72 -6 -105 21 -105 87 0 58 32 94 85 94 25 0
44 -8 60 -25z m107 -42 c3 -63 5 -68 27 -71 32 -5 41 12 41 81 0 50 2 57 20
57 19 0 20 -7 20 -90 0 -83 -1 -90 -20 -90 -11 0 -20 5 -20 10 0 6 -11 3 -24
-5 -18 -12 -30 -13 -50 -5 -33 12 -46 45 -46 121 0 56 1 59 25 59 23 0 24 -3
27 -67z m368 8 c0 -69 18 -98 51 -81 16 9 19 22 19 75 0 63 1 65 25 65 25 0
25 -1 25 -91 l0 -91 -32 5 c-18 2 -41 0 -50 -5 -19 -9 -56 5 -70 26 -4 6 -8
44 -8 84 0 65 2 72 20 72 18 0 20 -7 20 -59z m498 39 c13 -12 22 -33 22 -50 0
-30 0 -30 -60 -30 -33 0 -60 -4 -60 -9 0 -20 33 -42 54 -36 69 22 85 15 46
-20 -30 -27 -84 -24 -115 5 -20 19 -25 33 -25 71 0 39 4 51 26 68 34 27 84 27
112 1z m502 -70 c0 -89 0 -90 -25 -90 -25 0 -25 1 -25 90 0 89 0 90 25 90 25
0 25 -1 25 -90z m535 65 c32 -31 34 -91 4 -129 -24 -30 -81 -36 -116 -11 -42
30 -38 129 6 155 31 18 81 11 106 -15z m739 12 c15 -11 20 -31 24 -90 l5 -76
-49 -1 c-27 0 -57 -1 -67 -1 -25 0 -47 20 -47 43 0 38 19 57 65 64 26 3 45 12
45 19 0 18 -28 27 -50 15 -23 -13 -50 -13 -50 -1 0 36 87 55 124 28z m194 -3
c12 -8 22 -22 22 -30 0 -16 -36 -19 -45 -4 -12 19 -55 11 -64 -12 -10 -27 -3
-64 15 -79 14 -12 54 -3 54 12 0 5 9 9 20 9 25 0 26 -22 1 -44 -32 -29 -91
-24 -119 10 -20 23 -23 35 -19 73 3 30 12 51 27 63 27 22 78 23 108 2z m191
-1 c11 -10 24 -33 27 -50 l7 -33 -66 0 c-60 0 -65 -1 -60 -20 6 -24 49 -38 66
-21 16 16 47 13 47 -5 0 -20 -64 -46 -95 -38 -14 3 -35 18 -46 33 -28 34 -22
107 11 133 28 23 82 23 109 1z m398 2 c25 -18 37 -63 28 -105 -13 -60 -95 -82
-141 -39 -34 32 -34 100 1 134 28 29 79 33 112 10z m204 -4 c20 -16 24 -29 24
-71 0 -63 -26 -90 -85 -90 -49 0 -80 35 -80 92 0 75 83 116 141 69z m-2651
-132 c0 -34 -25 -89 -40 -89 -17 0 -18 11 -4 78 5 23 44 33 44 11z m1224 -16
c-13 -54 -24 -73 -40 -73 -13 0 -15 7 -9 43 9 53 12 57 36 57 16 0 18 -5 13
-27z m1726 15 c0 -35 -22 -88 -37 -88 -13 0 -14 7 -9 38 3 20 6 43 6 50 0 6 9
12 20 12 11 0 20 -6 20 -12z m-2872 -331 c4 -20 -25 -34 -40 -19 -15 15 -1 44
19 40 10 -2 19 -11 21 -21z m-2238 -113 c0 -124 0 -125 -22 -122 -22 3 -23 7
-26 126 l-3 122 26 0 25 0 0 -126z m1910 106 c0 -16 -7 -20 -35 -20 l-35 0 0
-99 c0 -89 -2 -99 -19 -104 -11 -3 -22 -2 -25 1 -3 3 -6 50 -6 104 l0 98 -38
0 c-31 0 -38 4 -38 20 0 19 7 20 98 20 91 0 98 -1 98 -20z m1640 -99 c0 -94
-3 -120 -14 -124 -8 -3 -17 -1 -19 6 -3 9 -8 9 -18 0 -21 -20 -58 -15 -84 12
-20 19 -25 34 -25 74 0 42 4 53 27 71 21 17 36 20 63 16 35 -5 35 -5 34 29 -2
28 2 35 17 35 18 0 19 -9 19 -119z m220 -1 c0 -110 -2 -120 -19 -120 -17 0
-18 8 -15 100 1 55 0 100 -2 100 -3 0 -16 -7 -29 -16 -24 -15 -25 -15 -25 4 0
23 36 51 68 51 22 1 22 -1 22 -119z m190 105 c0 -11 -12 -15 -50 -15 -49 0
-50 -1 -50 -31 0 -23 4 -30 18 -28 58 5 92 -23 92 -76 0 -68 -73 -108 -128
-69 -25 17 -30 54 -7 54 8 0 15 -4 15 -10 0 -15 39 -32 60 -25 25 8 35 47 20
75 -10 19 -18 22 -56 17 -24 -2 -47 -1 -50 4 -3 5 -2 34 1 64 l7 55 64 0 c50
0 64 -3 64 -15z m700 -20 c0 -36 0 -36 35 -29 59 11 75 -12 75 -108 0 -59 -3
-79 -12 -76 -8 3 -15 31 -18 73 -4 50 -10 71 -22 79 -33 20 -53 -4 -56 -70 -3
-76 -9 -91 -25 -75 -8 8 -12 51 -12 126 -1 104 1 115 17 115 14 0 18 -8 18
-35z m-4180 -5 c0 -11 7 -20 15 -20 8 0 15 -9 15 -20 0 -11 -7 -20 -15 -20
-12 0 -15 -13 -15 -55 0 -40 4 -55 14 -55 15 0 28 -24 19 -34 -12 -12 -52 -6
-67 10 -11 10 -16 34 -16 75 0 33 -4 59 -10 59 -5 0 -10 9 -10 20 0 11 5 20
10 20 6 0 10 9 10 20 0 15 7 20 25 20 18 0 25 -5 25 -20z m1850 0 c0 -11 7
-20 15 -20 8 0 15 -9 15 -20 0 -11 -7 -20 -15 -20 -11 0 -15 -13 -15 -54 0
-46 3 -54 21 -59 25 -7 20 -31 -7 -35 -38 -6 -57 21 -60 84 -2 32 -8 60 -14
62 -15 5 -12 39 5 46 8 3 15 9 14 13 -3 18 2 23 21 23 13 0 20 -7 20 -20z
m110 0 c0 -13 7 -20 20 -20 13 0 20 -7 20 -20 0 -13 -7 -20 -20 -20 -17 0 -20
-7 -20 -51 0 -42 3 -52 20 -56 27 -7 27 -43 -1 -43 -47 0 -59 17 -59 84 0 48
-4 65 -15 70 -8 3 -15 12 -15 21 0 8 7 15 15 15 8 0 15 9 15 20 0 13 7 20 20
20 13 0 20 -7 20 -20z m2120 0 c0 -11 7 -20 15 -20 8 0 15 -7 15 -15 0 -8 -7
-15 -15 -15 -12 0 -15 -14 -15 -65 0 -51 3 -65 15 -65 8 0 15 -7 15 -15 0 -23
-37 -18 -54 7 -10 14 -16 44 -16 80 0 32 -4 58 -10 58 -5 0 -10 7 -10 15 0 8
5 15 10 15 6 0 10 9 10 20 0 13 7 20 20 20 13 0 20 -7 20 -20z m-4470 -30 c0
-7 6 -7 19 0 28 14 57 12 75 -6 12 -11 16 -36 16 -95 0 -72 -2 -79 -20 -79
-18 0 -20 7 -20 64 0 46 -4 67 -16 77 -29 24 -48 -1 -54 -72 -4 -56 -8 -64
-25 -64 -18 0 -20 8 -23 93 l-3 92 26 0 c14 0 25 -5 25 -10z m282 -12 c21 -21
21 -22 2 -29 -10 -4 -23 -3 -28 2 -15 13 -56 11 -56 -3 0 -7 21 -20 48 -28 41
-13 47 -19 50 -46 4 -37 -13 -53 -62 -61 -39 -6 -86 17 -86 42 0 17 31 20 47
4 13 -13 58 -8 58 6 0 6 -18 16 -40 23 -51 17 -65 29 -65 58 0 51 91 73 132
32z m305 -4 c17 -24 18 -154 1 -155 -105 -10 -136 -4 -144 26 -11 43 3 62 56
75 31 7 50 17 50 26 0 16 -41 19 -56 4 -11 -11 -44 -3 -44 11 0 4 10 15 23 24
28 20 96 14 114 -11z m154 16 c13 -7 19 -7 19 0 0 5 9 10 20 10 19 0 20 -7 20
-109 0 -102 -2 -111 -22 -125 -28 -20 -97 -20 -122 -1 -31 23 -7 41 34 26 39
-13 70 0 70 31 0 17 -3 19 -12 10 -17 -17 -74 -15 -92 4 -22 21 -29 57 -22 99
10 54 60 79 107 55z m149 -2 c0 -9 3 -9 12 0 19 19 48 15 48 -8 0 -13 -7 -20
-18 -20 -31 0 -42 -22 -42 -82 0 -55 -1 -58 -25 -58 -25 0 -25 1 -25 90 0 89
0 90 25 90 14 0 25 -5 25 -12z m217 -14 c15 -21 18 -150 3 -159 -5 -3 -17 -2
-26 3 -10 6 -27 5 -44 -1 -35 -13 -80 12 -80 45 0 29 28 58 56 58 33 0 54 10
54 26 0 16 -41 19 -56 4 -11 -11 -44 -3 -44 11 0 4 10 15 23 24 28 20 96 14
114 -11z m93 16 c0 -6 7 -6 18 1 24 15 72 4 72 -16 0 -12 5 -10 20 5 25 25 62
26 84 1 25 -27 19 -163 -6 -167 -16 -2 -18 6 -18 59 0 70 -9 91 -36 85 -16 -3
-20 -15 -24 -71 -3 -37 -8 -67 -12 -67 -5 0 -15 0 -23 0 -12 0 -15 14 -15 65
0 49 -4 67 -15 71 -29 12 -45 -16 -45 -76 0 -40 -4 -59 -14 -63 -23 -9 -26 2
-26 95 0 81 2 88 20 88 11 0 20 -5 20 -10z m670 -32 c21 -84 25 -86 40 -20 11
54 16 62 36 62 19 0 24 -8 35 -55 7 -30 15 -55 19 -55 4 0 11 19 14 43 8 54
19 70 43 65 20 -3 19 -5 -6 -91 -23 -82 -27 -88 -50 -85 -21 3 -28 12 -41 58
l-17 55 -13 -57 c-12 -54 -33 -76 -57 -59 -5 3 -20 45 -35 94 l-25 87 23 0
c19 0 25 -8 34 -42z m278 -50 c-3 -85 -5 -93 -23 -93 -18 0 -20 8 -23 93 l-3
92 26 0 26 0 -3 -92z m396 70 c14 -13 27 -36 28 -53 l3 -30 -63 -3 c-58 -3
-62 -4 -52 -22 12 -22 49 -27 67 -9 13 13 43 5 43 -10 0 -20 -61 -43 -95 -37
-42 8 -65 43 -65 96 0 78 78 117 134 68z m106 12 c0 -7 6 -7 19 0 29 15 41 12
41 -10 0 -11 -6 -20 -14 -20 -30 0 -46 -30 -46 -85 0 -36 -4 -55 -14 -58 -23
-9 -26 2 -26 95 0 81 2 88 20 88 11 0 20 -5 20 -10z m391 0 c16 -9 19 -22 19
-90 0 -73 -10 -105 -25 -81 -4 7 -14 6 -30 -1 -18 -8 -32 -8 -55 2 -25 10 -30
18 -30 46 0 37 14 49 68 57 41 7 46 11 39 32 -7 17 -52 21 -62 5 -3 -5 -15
-10 -25 -10 -14 0 -18 5 -13 16 11 30 77 43 114 24z m99 0 c0 -7 6 -7 19 0 30
16 59 12 81 -10 18 -18 20 -31 18 -93 -2 -56 -6 -72 -18 -72 -12 0 -16 16 -18
72 -3 74 -14 90 -52 78 -22 -7 -30 -34 -30 -102 0 -42 -3 -51 -15 -47 -12 5
-15 25 -15 95 0 72 3 89 15 89 8 0 15 -5 15 -10z m1222 -20 c27 -28 30 -36 25
-73 -7 -48 -44 -87 -83 -87 -15 0 -38 13 -56 30 -27 28 -30 36 -25 73 7 48 44
87 83 87 15 0 38 -13 56 -30z m493 5 c16 -15 25 -36 25 -55 l0 -30 -65 0 c-62
0 -65 -1 -55 -19 14 -28 47 -35 74 -18 30 20 54 7 31 -17 -55 -55 -145 -12
-145 69 0 83 81 125 135 70z m95 15 c0 -7 6 -7 19 0 27 14 41 13 41 -5 0 -8
-6 -15 -12 -15 -32 -1 -43 -21 -48 -86 -3 -41 -10 -69 -17 -72 -10 -3 -13 20
-13 92 0 79 3 96 15 96 8 0 15 -5 15 -10z m-924 -25 c2 -42 5 -45 35 -45 41 0
33 -24 -10 -28 -28 -3 -31 -7 -29 -30 2 -18 -2 -27 -14 -30 -14 -3 -18 3 -18
27 0 28 -3 31 -30 31 -20 0 -30 5 -30 15 0 10 10 15 30 15 28 0 30 3 30 36 0
28 3 35 18 32 9 -2 17 -12 18 -23z m-2516 -117 c-2 -28 -31 -93 -41 -93 -8 0
-14 6 -13 13 1 6 2 28 3 47 1 30 4 35 26 35 14 0 25 -1 25 -2z m1266 -45 c-12
-47 -36 -71 -36 -35 0 47 13 82 30 82 16 0 17 -4 6 -47z m-442 -278 c-4 -8
-15 -15 -25 -15 -12 0 -19 -7 -19 -20 0 -14 7 -20 21 -20 12 0 19 -5 16 -12
-2 -7 -11 -12 -21 -10 -14 2 -16 -8 -16 -78 0 -73 -2 -80 -20 -80 -17 0 -19 8
-22 78 l-3 77 -30 0 c-30 0 -30 0 -33 -62 -3 -54 -1 -62 18 -68 11 -3 20 -13
20 -21 0 -17 -9 -18 -44 -4 -25 9 -26 14 -26 80 0 54 -4 72 -15 76 -8 4 -15
10 -15 15 0 5 7 9 15 9 8 0 15 9 15 20 0 11 7 20 15 20 8 0 15 -9 15 -20 0
-16 7 -20 35 -20 28 0 35 4 35 19 0 28 27 51 60 51 22 0 28 -4 24 -15z m-424
-115 c0 -100 -2 -120 -15 -120 -12 0 -15 20 -15 120 0 100 3 120 15 120 13 0
15 -20 15 -120z m-200 48 c0 -9 3 -9 12 0 13 13 67 16 84 4 18 -12 34 -49 34
-81 0 -76 -49 -118 -102 -87 l-28 15 0 -44 c0 -33 -4 -45 -15 -45 -13 0 -15
21 -15 125 0 104 2 125 15 125 8 0 15 -5 15 -12z m368 -1 c9 -10 16 -103 13
-154 -1 -6 -16 -12 -33 -13 -18 0 -43 -1 -56 -1 -32 -1 -52 19 -52 51 0 35 14
46 68 55 33 5 42 11 40 23 -4 20 -46 28 -61 13 -6 -6 -17 -11 -24 -11 -19 0
-16 27 5 39 24 15 88 13 100 -2z m407 -12 c45 -44 27 -133 -31 -155 -29 -11
-81 5 -94 30 -18 34 -12 102 12 127 30 32 81 31 113 -2z m155 9 c0 -8 -8 -14
-18 -14 -31 0 -42 -22 -42 -87 0 -49 -3 -63 -15 -63 -12 0 -15 16 -15 88 l0
89 45 1 c32 0 45 -4 45 -14z m71 4 c0 -10 2 -10 6 0 7 17 72 15 79 -3 5 -13 8
-13 21 0 8 8 27 15 43 15 43 0 60 -32 60 -112 0 -62 -2 -68 -21 -68 -18 0 -20
5 -18 63 2 70 -3 87 -30 87 -30 0 -41 -22 -41 -87 0 -49 -3 -63 -15 -63 -12 0
-15 14 -15 70 0 56 -3 72 -16 77 -34 13 -49 -11 -52 -81 -2 -50 -6 -66 -17
-66 -12 0 -15 18 -15 90 0 73 3 90 15 90 8 0 15 -6 16 -12z m373 -10 c15 -24
0 -34 -28 -19 -13 7 -32 11 -42 9 -32 -6 -21 -32 17 -43 66 -19 88 -55 52 -87
-38 -34 -105 -29 -119 7 -10 25 4 30 35 12 16 -9 37 -14 46 -11 28 11 12 37
-33 52 -50 16 -65 51 -36 83 22 25 91 23 108 -3z m94 -140 c-2 -13 -10 -23
-18 -23 -8 0 -16 10 -18 23 -3 17 2 22 18 22 16 0 21 -5 18 -22z m-2923 -343
c0 -5 -24 -11 -52 -13 l-53 -3 0 -40 0 -39 50 0 c64 0 66 -18 3 -22 l-48 -3
-3 -42 c-2 -29 -8 -43 -18 -43 -11 0 -14 20 -14 103 0 57 3 107 7 111 11 10
128 2 128 -9z m2175 -94 c0 -98 -2 -110 -17 -110 -10 0 -30 -3 -45 -7 -38 -9
-78 32 -78 79 0 65 70 113 108 75 9 -9 12 -3 12 30 0 23 5 42 10 42 6 0 10
-43 10 -109z m930 -7 c0 -86 -3 -104 -15 -104 -12 0 -15 18 -15 103 0 57 3
107 6 110 17 17 24 -13 24 -109z m500 6 c0 -91 -3 -110 -15 -110 -12 0 -15 18
-15 103 0 57 3 107 7 110 18 19 23 -2 23 -103z m370 95 c0 -8 -9 -15 -20 -15
-11 0 -20 -7 -20 -15 0 -8 9 -15 20 -15 11 0 20 -4 20 -9 0 -5 -9 -11 -20 -14
-17 -4 -20 -14 -20 -71 0 -52 -3 -66 -15 -66 -12 0 -15 14 -15 70 0 56 -3 70
-15 70 -8 0 -15 5 -15 10 0 6 7 10 15 10 8 0 15 8 15 18 0 10 5 23 12 30 17
17 58 15 58 -3z m-3600 -25 c0 -13 7 -20 20 -20 11 0 20 -5 20 -11 0 -6 -9
-13 -20 -16 -16 -4 -20 -14 -20 -43 0 -48 8 -70 26 -70 8 0 14 -5 14 -11 0 -6
-12 -9 -27 -7 -27 3 -28 6 -31 66 -2 44 -7 65 -17 69 -20 7 -19 23 0 23 8 0
15 9 15 20 0 11 5 20 10 20 6 0 10 -9 10 -20z m2970 0 c0 -14 7 -20 21 -20 12
0 19 -5 17 -12 -3 -7 -11 -13 -19 -13 -10 0 -15 -15 -17 -53 -3 -47 -1 -54 17
-59 29 -7 26 -23 -3 -23 -32 0 -39 12 -42 78 -1 32 -7 58 -15 64 -11 7 -11 11
-1 15 6 2 12 13 12 24 0 10 7 19 15 19 8 0 15 -9 15 -20z m-3206 -42 c10 -14
16 -44 16 -81 0 -50 -3 -58 -17 -56 -10 1 -30 -1 -45 -5 -38 -11 -68 8 -68 44
0 33 10 42 60 50 22 3 35 11 35 20 0 19 -41 25 -60 10 -23 -19 -39 -1 -19 21
24 27 79 25 98 -3z m156 7 c16 -19 3 -40 -15 -25 -16 14 -61 9 -58 -5 1 -5 7
-13 15 -16 81 -36 98 -64 56 -93 -30 -21 -61 -20 -89 3 -28 22 -18 41 11 23
30 -19 60 -15 60 7 0 13 -9 21 -29 26 -16 3 -37 15 -46 25 -16 18 -17 21 -1
45 19 29 75 35 96 10z m415 -1 c13 -13 14 -19 4 -25 -7 -4 -18 -1 -25 6 -16
16 -54 8 -54 -11 0 -7 18 -18 40 -24 30 -8 41 -17 46 -37 12 -46 -48 -79 -97
-53 -23 13 -26 40 -4 40 8 0 15 -5 15 -11 0 -6 12 -9 28 -7 36 4 35 29 -3 41
-40 13 -55 26 -55 48 0 44 71 66 105 33z m162 -6 c13 -12 23 -32 23 -45 0 -21
-4 -23 -55 -23 -38 0 -55 -4 -55 -13 0 -34 44 -47 80 -25 29 18 39 -1 11 -23
-75 -61 -161 47 -100 125 25 32 64 34 96 4z m164 12 c10 -6 19 -17 19 -25 0
-17 -16 -20 -25 -5 -10 16 -62 12 -69 -6 -10 -26 -7 -69 6 -82 16 -16 43 -15
61 2 8 8 19 11 26 6 9 -5 5 -13 -15 -29 -34 -26 -54 -27 -88 0 -20 16 -26 29
-26 62 0 68 55 107 111 77z m89 -49 c0 -67 15 -90 49 -71 18 9 21 20 21 70 0
47 3 60 15 60 12 0 15 -15 15 -79 l0 -78 -55 -2 c-66 -1 -75 10 -75 98 0 48 3
61 15 61 12 0 15 -13 15 -59z m170 47 c0 -9 3 -9 12 0 16 16 51 16 46 0 -3 -7
-13 -15 -24 -17 -27 -5 -34 -19 -34 -78 0 -40 -4 -53 -15 -53 -12 0 -15 16
-15 80 0 64 3 80 15 80 8 0 15 -5 15 -12z m190 -8 c11 -11 20 -31 20 -45 0
-24 -3 -25 -55 -25 -38 0 -55 -4 -55 -13 0 -32 53 -50 77 -26 6 6 17 9 24 7
21 -7 -27 -48 -56 -48 -38 0 -75 42 -75 85 0 69 75 110 120 65z m337 -10 c7
-14 13 -49 13 -77 0 -48 -2 -53 -22 -52 -13 0 -35 -3 -50 -6 -19 -5 -32 -1
-47 14 -12 12 -21 25 -21 29 0 20 29 44 60 51 42 8 56 41 18 41 -13 0 -29 -5
-36 -12 -9 -9 -15 -9 -24 1 -19 19 19 43 62 39 25 -2 38 -10 47 -28z m73 19
c0 -8 4 -8 14 0 24 20 69 9 83 -19 19 -37 17 -130 -2 -130 -11 0 -15 11 -15
43 0 64 -9 87 -34 87 -34 0 -46 -20 -46 -77 0 -41 -3 -53 -16 -53 -13 0 -15
13 -12 80 2 56 7 80 16 80 6 0 12 -5 12 -11z m518 -5 c27 -19 28 -34 2 -34
-11 0 -20 5 -20 10 0 14 -43 13 -58 -2 -16 -16 -16 -70 0 -86 16 -16 43 -15
61 2 8 8 19 11 27 6 9 -6 7 -13 -9 -29 -28 -28 -66 -27 -96 4 -69 68 15 184
93 129z m173 -5 c30 -30 24 -105 -13 -132 -29 -22 -65 -18 -92 9 -24 23 -21
99 4 124 26 26 74 26 101 -1z m157 8 c9 -7 16 -7 24 1 17 17 54 15 72 -4 22
-22 23 -144 1 -144 -12 0 -15 13 -15 58 0 65 -13 87 -42 71 -14 -8 -18 -22
-18 -69 0 -46 -3 -60 -15 -60 -10 0 -15 16 -17 63 -3 59 -4 62 -28 62 -24 0
-25 -3 -28 -62 -2 -47 -7 -63 -17 -63 -12 0 -15 16 -15 78 l0 77 43 2 c23 0
48 -4 55 -10z m182 3 c0 -6 7 -6 18 1 54 34 115 -38 91 -108 -14 -42 -48 -61
-83 -45 -24 11 -25 9 -28 -26 -2 -20 -7 -37 -13 -37 -6 0 -11 46 -13 113 -2
95 0 112 13 112 8 0 15 -5 15 -10z m333 -7 c8 -10 19 -30 22 -45 l7 -28 -56 0
c-48 0 -56 -3 -56 -19 0 -10 7 -22 16 -25 24 -9 54 -7 54 4 0 6 7 10 15 10 26
0 16 -27 -15 -40 -62 -26 -118 29 -103 101 10 54 82 79 116 42z m266 -9 c12
-15 21 -35 21 -45 0 -16 -8 -19 -56 -19 -52 0 -55 -1 -52 -22 4 -27 32 -35 64
-17 31 16 42 4 19 -21 -45 -50 -133 7 -120 77 2 10 4 21 4 26 1 4 10 16 21 27
29 29 74 26 99 -6z m162 -33 c11 -30 21 -56 23 -58 2 -2 13 24 25 57 13 36 28
60 37 60 7 0 14 -1 14 -3 0 -1 -17 -47 -37 -102 -29 -74 -44 -102 -62 -112
-37 -18 -47 -4 -16 22 l28 22 -32 87 c-26 74 -29 87 -15 84 10 -2 24 -25 35
-57z m399 44 c0 -7 -10 -15 -22 -17 -21 -3 -23 -9 -26 -65 -2 -47 -7 -63 -17
-63 -12 0 -15 16 -15 78 l0 78 40 1 c28 1 40 -2 40 -12z m139 -11 c12 -15 21
-35 21 -45 0 -16 -8 -19 -60 -19 -64 0 -66 -1 -50 -31 11 -20 64 -27 75 -9 9
14 25 12 25 -3 0 -20 -45 -40 -74 -33 -40 10 -56 33 -56 82 0 79 74 115 119
58z m166 1 c14 -13 25 -33 25 -45 0 -18 -6 -20 -60 -20 -63 0 -69 -4 -47 -35
14 -18 37 -18 80 0 12 5 17 3 17 -8 0 -8 -13 -20 -30 -27 -65 -27 -119 31 -98
105 16 58 71 73 113 30z m93 -118 c2 -12 -3 -17 -17 -17 -12 0 -21 6 -21 13 0
31 32 34 38 4z m-4004 5 c8 -13 -18 -82 -31 -82 -11 0 -10 36 3 78 4 13 20 16
28 4z m1096 -14 c0 -38 -12 -68 -26 -68 -13 0 -12 33 2 78 6 21 24 13 24 -10z
m775 -905 c-583 -7 -1873 -7 -1857 -1 9 4 485 6 1057 5 572 -1 932 -3 800 -4z
m957 0 c-62 -2 -161 -2 -220 0 -59 1 -8 3 113 3 121 0 169 -2 107 -3z m221 0
c-13 -2 -33 -2 -45 0 -13 2 -3 4 22 4 25 0 35 -2 23 -4z m255 0 c-16 -2 -40
-2 -55 0 -16 2 -3 4 27 4 30 0 43 -2 28 -4z m122 -13 c18 -12 2 -12 -25 0 -13
6 -15 9 -5 9 8 0 22 -4 30 -9z m-3455 -7 c-45 -10 -123 -53 -167 -93 -27 -23
-48 -38 -48 -33 0 30 165 133 210 131 20 0 21 -1 5 -5z m-227 -163 c-7 -11
-16 -20 -20 -20 -5 0 -3 9 4 20 7 11 16 20 20 20 5 0 3 -9 -4 -20z m-48 -90
c-26 -74 -26 -196 0 -270 25 -72 19 -75 -10 -5 -26 64 -33 200 -12 251 6 16
16 42 22 58 19 53 19 22 0 -34z m541 -10 c25 -14 26 -45 2 -35 -60 26 -121 7
-148 -45 -24 -46 -19 -78 19 -116 27 -27 42 -34 73 -34 60 1 103 46 103 109 0
21 5 31 15 31 24 0 19 -71 -8 -111 -27 -40 -60 -59 -105 -59 -104 0 -169 96
-128 189 29 64 121 100 177 71z m3476 -12 c-3 -8 -6 -5 -6 6 -1 11 2 17 5 13
3 -3 4 -12 1 -19z m-3397 -21 c0 -17 -112 -127 -130 -127 -18 0 -50 30 -50 47
0 17 15 17 33 -1 12 -13 21 -7 68 40 52 53 79 67 79 41z m1020 -2 c0 -8 -6
-15 -14 -15 -17 0 -28 14 -19 24 12 12 33 6 33 -9z m618 -2 c-2 -10 -10 -18
-18 -18 -8 0 -16 8 -18 18 -2 12 3 17 18 17 15 0 20 -5 18 -17z m990 -1 c2 -7
-6 -12 -17 -12 -21 0 -27 11 -14 24 9 9 26 2 31 -12z m-2374 -52 c21 -33 39
-60 41 -60 1 0 1 27 1 60 -1 51 2 60 17 60 15 0 17 -11 17 -90 0 -87 -1 -90
-22 -90 -17 0 -32 16 -60 63 l-38 62 0 -62 c0 -56 -2 -63 -20 -63 -19 0 -20 7
-20 90 0 87 1 90 23 90 16 0 32 -16 61 -60z m973 43 c4 -10 14 -23 22 -30 14
-10 14 -12 -1 -18 -13 -5 -18 -18 -18 -51 0 -27 4 -43 11 -41 6 1 14 -4 16
-11 4 -10 -4 -13 -28 -10 -33 3 -34 4 -37 56 -2 28 -7 52 -13 52 -5 0 -9 7 -9
15 0 8 5 15 10 15 6 0 10 9 10 20 0 25 28 27 37 3z m323 -3 c0 -11 7 -20 15
-20 8 0 15 -7 15 -15 0 -8 -7 -15 -15 -15 -11 0 -15 -11 -15 -40 0 -27 5 -43
15 -46 25 -10 17 -26 -12 -22 -26 3 -28 7 -31 56 -2 28 -7 52 -13 52 -5 0 -9
7 -9 15 0 8 4 15 9 15 5 0 11 9 14 20 3 11 10 20 16 20 6 0 11 -9 11 -20z
m1480 -70 l0 -90 -54 0 c-47 0 -56 3 -71 26 -35 54 14 132 70 110 11 -4 15 1
15 19 0 18 5 25 20 25 19 0 20 -7 20 -90z m-2562 34 c16 -11 22 -25 22 -50 0
-56 -15 -74 -60 -74 -48 0 -70 21 -70 67 0 65 55 94 108 57z m202 0 c0 -8 -9
-14 -19 -14 -23 0 -31 -19 -31 -71 0 -28 -4 -39 -15 -39 -12 0 -15 14 -15 69
l0 69 40 0 c28 1 40 -3 40 -14z m112 4 c9 -7 18 -24 20 -38 3 -23 0 -25 -44
-28 -27 -2 -48 -7 -48 -12 0 -16 35 -29 51 -19 21 13 39 11 39 -5 0 -29 -89
-37 -111 -10 -21 25 -17 93 6 110 23 17 66 18 87 2z m178 -56 c0 -91 -14 -116
-66 -120 -28 -2 -45 2 -54 13 -13 16 -12 17 39 19 19 0 36 6 38 12 2 6 -10 8
-31 6 -45 -5 -72 30 -62 83 8 42 27 54 89 53 l47 0 0 -66z m60 -2 c0 -56 -3
-70 -15 -70 -12 0 -15 14 -15 70 0 56 3 70 15 70 12 0 15 -14 15 -70z m128 58
c22 -22 13 -28 -28 -22 -24 4 -40 3 -40 -3 0 -5 18 -15 40 -22 31 -9 40 -17
40 -34 0 -33 -19 -47 -62 -47 -27 0 -40 5 -48 20 -9 17 -8 20 7 20 10 0 24 -4
32 -9 16 -10 41 -4 41 10 0 5 -7 9 -15 9 -31 0 -65 23 -65 45 0 30 19 45 55
45 17 0 36 -5 43 -12z m206 -3 c-3 -7 -14 -15 -25 -18 -16 -4 -19 -14 -19 -56
0 -44 -3 -51 -20 -51 -18 0 -20 7 -20 69 l0 69 44 0 c33 0 43 -3 40 -13z m120
-7 c9 -13 16 -43 16 -70 l0 -48 -54 0 c-59 0 -82 16 -71 49 4 13 21 24 46 31
21 6 39 15 39 20 0 13 -33 13 -46 0 -6 -6 -15 -6 -24 1 -13 8 -12 11 4 24 29
22 72 19 90 -7z m166 -48 c0 -63 -2 -70 -20 -70 -18 0 -20 7 -20 70 0 63 2 70
20 70 18 0 20 -7 20 -70z m127 62 c22 -14 31 -55 19 -92 -10 -32 -15 -35 -53
-38 -33 -2 -44 1 -57 20 -22 31 -20 74 4 98 20 20 65 26 87 12z m161 -4 c19
-16 16 -128 -3 -128 -11 0 -15 11 -15 39 0 52 -8 71 -30 71 -17 0 -33 -26 -29
-46 5 -31 -3 -64 -16 -64 -12 0 -15 14 -15 68 l0 69 48 1 c26 0 53 -4 60 -10z
m192 -1 c0 -7 -10 -17 -22 -22 -19 -8 -24 -19 -26 -57 -2 -34 -7 -48 -18 -48
-11 0 -14 15 -14 69 l0 69 40 0 c25 1 40 -4 40 -11z m124 -9 c30 -43 21 -58
-34 -58 -50 0 -64 -11 -34 -28 10 -6 27 -5 45 1 33 13 47 4 29 -18 -16 -20
-84 -20 -104 1 -23 22 -20 80 4 104 27 27 75 26 94 -2z m166 -75 c0 -76 -3
-93 -15 -93 -10 0 -15 10 -15 28 0 26 -2 28 -37 24 -45 -6 -63 15 -63 69 0 52
20 68 80 67 l50 -1 0 -94z m62 45 c2 -42 7 -54 22 -56 25 -5 36 14 36 66 0 33
4 42 18 42 15 0 17 -9 14 -69 l-4 -68 -49 -2 c-58 -1 -69 13 -69 88 0 38 4 51
14 51 11 0 16 -15 18 -52z m157 -18 c-2 -61 -4 -70 -20 -70 -17 0 -19 8 -19
70 0 64 2 70 20 70 19 0 21 -6 19 -70z m111 54 c0 -8 -9 -14 -19 -14 -23 0
-31 -19 -31 -71 0 -28 -4 -39 -15 -39 -12 0 -15 14 -15 69 l0 69 40 0 c28 1
40 -3 40 -14z m120 -4 c11 -11 20 -29 20 -40 0 -17 -7 -20 -50 -20 -52 0 -64
-12 -30 -30 14 -8 25 -7 39 2 23 14 36 6 28 -17 -8 -20 -80 -20 -101 1 -25 24
-21 90 6 108 31 22 64 20 88 -4z m547 -122 c-3 -8 -6 -5 -6 6 -1 11 2 17 5 13
3 -3 4 -12 1 -19z m-10 -40 c-3 -8 -6 -5 -6 6 -1 11 2 17 5 13 3 -3 4 -12 1
-19z m-3957 -119 c29 -47 103 -104 175 -133 50 -21 60 -21 1715 -26 l1665 -5
-1646 -3 c-1625 -2 -1648 -2 -1712 18 -74 23 -180 95 -205 140 -9 17 -20 30
-24 30 -5 0 -8 5 -8 10 0 20 16 8 40 -31z m3820 -83 c0 -2 -7 -7 -16 -10 -8
-3 -12 -2 -9 4 6 10 25 14 25 6z m-60 -36 c-8 -5 -19 -10 -25 -10 -5 0 -3 5 5
10 8 5 20 10 25 10 6 0 3 -5 -5 -10z m-120 -40 c-8 -5 -26 -9 -40 -9 -23 1
-23 2 5 9 43 11 52 11 35 0z m-980 -317 c-869 -7 -2070 -7 -2070 0 0 4 541 6
1203 5 661 -2 1051 -4 867 -5z m543 0 c-23 -2 -64 -2 -90 0 -26 2 -7 3 42 3
50 0 71 -1 48 -3z m-2692 -38 c-30 -14 -55 -24 -57 -22 -6 5 79 47 96 47 8 0
-9 -11 -39 -25z m-97 -56 c-16 -17 -38 -35 -49 -41 -11 -6 0 8 25 31 53 48 65
53 24 10z m-84 -95 c-13 -19 -31 -56 -41 -82 -10 -26 -18 -42 -19 -35 -1 26
62 153 76 153 3 0 -4 -16 -16 -36z m3244 -20 c3 -8 2 -12 -4 -9 -6 3 -10 10
-10 16 0 14 7 11 14 -7z m-2736 -76 c21 -21 13 -30 -20 -22 -52 12 -80 6 -110
-22 -36 -36 -44 -74 -22 -119 40 -85 148 -85 188 0 10 19 14 44 11 55 -5 14
-2 20 9 20 23 0 21 -65 -4 -105 -40 -64 -129 -82 -190 -37 -37 27 -62 81 -56
121 6 40 42 96 71 110 29 14 109 13 123 -1z m72 -21 c0 -15 -119 -137 -134
-137 -15 0 -46 31 -46 47 0 16 22 17 38 1 9 -9 20 -4 47 22 19 18 31 38 28 43
-3 6 -1 7 4 4 6 -4 18 2 28 13 21 23 35 26 35 7z m1010 3 c0 -5 -9 -14 -20
-20 -24 -13 -26 -30 -5 -30 8 0 15 -4 15 -10 0 -5 -7 -10 -15 -10 -12 0 -15
-13 -15 -60 0 -47 -3 -60 -15 -60 -12 0 -15 13 -15 60 0 47 -3 60 -15 60 -8 0
-15 5 -15 10 0 6 7 10 15 10 8 0 15 8 15 18 0 10 5 23 12 30 14 14 58 16 58 2z
m555 1 c3 -6 -4 -15 -15 -21 -23 -13 -27 -30 -5 -30 8 0 15 -4 15 -10 0 -5 -7
-10 -15 -10 -12 0 -15 -13 -15 -60 0 -47 -3 -60 -15 -60 -12 0 -15 13 -15 60
0 47 -3 60 -15 60 -8 0 -15 5 -15 10 0 6 7 10 15 10 9 0 15 9 15 24 0 13 6 27
13 29 21 9 46 8 52 -2z m-1317 -99 c3 -87 2 -92 -18 -92 -18 0 -20 6 -20 77 0
60 -3 74 -12 65 -16 -16 -28 -15 -28 2 0 19 40 47 60 44 12 -3 16 -23 18 -96z
m141 77 c46 -43 30 -151 -24 -165 -63 -16 -106 49 -85 128 16 57 68 75 109 37z
m175 -12 c24 -29 18 -123 -9 -143 -24 -18 -66 -18 -89 -1 -22 16 -32 91 -17
130 19 49 78 56 115 14z m127 12 c13 -26 -2 -69 -25 -69 -41 0 -57 29 -40 74
9 23 51 20 65 -5z m99 11 c0 -19 -122 -180 -137 -180 -18 0 -21 -5 102 168 16
23 35 29 35 12z m-1430 -72 c0 -45 -3 -59 -11 -51 -10 10 -4 113 7 113 2 0 4
-28 4 -62z m1750 22 c0 -6 -11 -15 -25 -20 -22 -8 -25 -15 -25 -60 0 -43 -3
-50 -20 -50 -18 0 -20 7 -20 70 l0 70 45 0 c25 0 45 -5 45 -10z m120 -9 c5
-11 10 -29 10 -40 0 -18 -6 -21 -45 -21 -25 0 -45 -5 -45 -10 0 -18 31 -24 53
-11 29 18 50 -5 23 -25 -23 -16 -59 -18 -86 -4 -27 15 -36 74 -16 105 21 32
89 36 106 6z m150 0 c5 -11 10 -29 10 -40 0 -18 -6 -21 -45 -21 -25 0 -45 -5
-45 -10 0 -18 31 -24 53 -11 14 10 22 10 31 1 24 -24 -58 -54 -90 -32 -34 22
-40 86 -12 119 17 21 86 16 98 -6z m305 -1 c26 -29 24 -79 -4 -102 -67 -53
-145 29 -95 100 20 29 74 30 99 2z m125 4 c0 -8 -9 -14 -19 -14 -23 0 -31 -19
-31 -71 0 -28 -4 -39 -15 -39 -12 0 -15 14 -15 69 l0 69 40 0 c28 1 40 -3 40
-14z m124 -6 c31 -43 21 -58 -35 -58 -36 0 -49 -4 -47 -12 6 -16 47 -23 60
-10 6 6 17 8 25 5 22 -9 -14 -43 -46 -43 -43 0 -71 26 -71 66 0 56 15 74 60
74 29 0 43 -6 54 -22z m66 -5 c26 -70 27 -71 41 -20 9 34 18 47 31 47 23 0 23
-4 -5 -75 -32 -84 -56 -86 -82 -8 -28 83 -28 83 -10 83 8 0 20 -12 25 -27z
m218 15 c7 -7 12 -25 12 -40 0 -27 -2 -28 -45 -28 -25 0 -45 -5 -45 -10 0 -18
31 -24 53 -11 29 18 50 -5 23 -25 -43 -31 -102 -10 -112 41 -9 52 15 85 64 85
21 0 43 -5 50 -12z m122 2 c0 -6 -11 -15 -25 -20 -22 -8 -25 -15 -25 -60 0
-43 -3 -50 -20 -50 -15 0 -19 5 -16 23 3 12 5 43 5 70 l1 47 40 0 c22 0 40 -5
40 -10z m-1536 -46 c16 -6 21 -39 10 -68 -4 -9 -18 -16 -34 -16 -16 0 -30 7
-34 16 -20 51 10 86 58 68z m-1408 -169 c11 -22 28 -53 38 -70 l18 -30 -22 25
c-31 34 -70 121 -76 167 -4 37 -4 37 9 -7 8 -25 23 -63 33 -85z m3311 83 c-3
-8 -6 -5 -6 6 -1 11 2 17 5 13 3 -3 4 -12 1 -19z m-3197 -230 c0 -13 -5 -9
-31 19 l-24 26 27 -19 c15 -10 28 -22 28 -26z m109 -66 c-9 -4 -86 34 -93 46
-3 4 19 -3 47 -17 29 -14 50 -27 46 -29z m1413 -17 c719 0 1300 -4 1293 -8 -8
-4 -608 -6 -1334 -5 -1018 2 -1323 6 -1332 15 -10 10 -4 11 27 5 21 -4 627 -7
1346 -7z m1048 -317 c3 -1 -616 -5 -1375 -8 l-1380 -5 -49 -22 c-59 -28 -72
-29 -31 -5 26 16 63 28 140 46 22 5 2687 0 2695 -6z m383 -5 c-57 -2 -149 -2
-205 0 -57 1 -11 3 102 3 113 0 159 -2 103 -3z m-3274 -76 c-2 -1 -15 -11 -29
-22 l-25 -20 19 23 c11 12 24 22 29 22 6 0 8 -1 6 -3z m-98 -108 c-22 -34 -41
-67 -41 -75 0 -7 -5 -16 -11 -19 -5 -4 -3 10 6 32 18 42 77 134 83 128 3 -2
-14 -32 -37 -66z m477 -89 c28 0 48 -18 36 -30 -8 -8 -19 -8 -39 0 -92 35
-177 -88 -112 -163 68 -78 187 -37 187 64 0 39 15 53 26 24 12 -30 -8 -89 -41
-122 -30 -30 -39 -33 -89 -33 -50 0 -61 4 -92 33 -76 69 -46 197 52 227 16 4
35 6 42 4 8 -2 21 -4 30 -4z m-533 -139 c0 -79 -3 -114 -9 -103 -18 31 -11
222 7 222 1 0 2 -54 2 -119z m635 106 c0 -6 -29 -41 -64 -75 -57 -56 -67 -62
-85 -53 -27 15 -45 47 -30 56 5 4 18 0 28 -9 16 -14 21 -11 71 39 53 54 80 68
80 42z m390 -7 c0 -23 -25 -27 -33 -6 -5 13 5 23 26 25 4 1 7 -8 7 -19z m965
-1 c0 -7 -8 -15 -17 -17 -18 -3 -25 18 -11 32 10 10 28 1 28 -15z m-1145 -29
l0 -40 40 0 40 0 0 40 c0 34 3 40 20 40 20 0 21 -5 18 -92 -3 -79 -6 -93 -20
-96 -15 -3 -18 4 -18 37 l0 41 -39 0 c-39 0 -40 -1 -43 -37 -2 -27 -8 -39 -20
-41 -16 -3 -18 6 -18 92 0 89 1 96 20 96 17 0 20 -7 20 -40z m400 10 c0 -27 2
-29 19 -18 15 9 25 9 45 0 24 -11 26 -16 26 -77 0 -51 -3 -65 -15 -65 -11 0
-15 12 -15 49 0 57 -19 81 -44 56 -10 -10 -16 -33 -16 -61 0 -32 -4 -44 -15
-44 -12 0 -15 17 -15 95 0 78 3 95 15 95 10 0 15 -10 15 -30z m680 -65 c0 -78
-3 -95 -15 -95 -12 0 -15 17 -15 95 0 78 3 95 15 95 12 0 15 -17 15 -95z m528
3 l-3 -92 -43 -2 c-56 -3 -86 21 -86 69 0 48 29 80 66 73 25 -5 28 -2 28 19 0
18 5 25 20 25 20 0 21 -5 18 -92z m572 -3 c0 -78 -3 -95 -15 -95 -12 0 -15 17
-15 95 0 78 3 95 15 95 12 0 15 -17 15 -95z m460 2 l0 -94 -44 0 c-56 -1 -86
24 -86 72 0 56 55 96 88 63 9 -9 12 -5 12 20 0 22 5 32 15 32 12 0 15 -17 15
-93z m-1430 68 c0 -8 7 -15 15 -15 8 0 15 -7 15 -15 0 -8 -7 -15 -15 -15 -23
0 -20 -76 3 -89 14 -8 15 -12 4 -23 -24 -24 -47 4 -50 61 -2 28 -7 51 -13 51
-5 0 -9 7 -9 15 0 8 5 15 10 15 6 0 10 7 10 15 0 8 7 15 15 15 8 0 15 -7 15
-15z m-1030 -90 c0 -60 -3 -75 -15 -75 -12 0 -15 15 -15 75 0 60 3 75 15 75
12 0 15 -15 15 -75z m118 63 c9 -9 12 -9 12 0 0 7 7 12 15 12 12 0 15 -16 15
-80 0 -66 -3 -83 -19 -99 -21 -21 -73 -20 -99 2 -20 16 7 28 30 14 20 -13 48
-1 56 22 3 10 -1 10 -17 -1 -18 -11 -26 -11 -49 2 -54 31 -36 140 23 140 11 0
26 -5 33 -12z m420 -87 c-2 -77 -6 -96 -18 -96 -9 0 -16 11 -18 26 -2 21 -7
26 -23 22 -10 -3 -30 2 -44 11 -20 13 -25 25 -25 58 0 58 20 77 81 76 l50 -1
-3 -96z m62 50 c0 -31 5 -53 15 -61 26 -21 45 5 45 61 0 37 4 49 15 49 12 0
15 -15 15 -75 0 -60 -3 -75 -15 -75 -8 0 -15 5 -15 12 0 9 -3 9 -12 0 -17 -17
-44 -15 -62 4 -22 22 -23 134 -1 134 11 0 15 -12 15 -49z m213 37 c11 -9 17
-32 18 -73 l3 -60 -40 -2 c-21 -1 -46 1 -56 3 -46 13 -19 84 32 84 17 0 30 5
30 10 0 17 -29 23 -46 10 -11 -10 -18 -10 -26 -2 -9 9 -7 16 8 27 24 18 55 19
77 3z m152 -63 c0 -58 -3 -70 -17 -73 -16 -3 -18 6 -18 73 0 67 2 76 18 73 14
-3 17 -15 17 -73z m162 25 l17 -49 19 49 c10 28 25 50 33 50 8 0 14 -4 14 -10
0 -14 -60 -163 -71 -176 -8 -9 -35 -12 -59 -5 -3 1 7 11 22 24 l27 22 -24 59
c-29 68 -31 86 -10 86 8 0 22 -21 32 -50z m438 30 c27 -30 25 -88 -4 -111 -31
-26 -57 -24 -86 6 -30 30 -32 64 -4 99 25 32 68 35 94 6z m79 -27 l14 -48 12
48 c15 58 40 61 53 4 11 -46 23 -47 31 -2 4 19 11 37 16 40 24 15 26 -10 7
-75 -25 -87 -48 -95 -67 -22 l-13 47 -11 -45 c-14 -53 -38 -64 -54 -23 -35 93
-39 123 -17 123 9 0 20 -19 29 -47z m206 35 c0 -9 3 -9 12 0 17 17 38 15 60
-5 24 -21 27 -133 3 -133 -11 0 -15 12 -15 49 0 56 -19 82 -45 61 -10 -8 -15
-30 -15 -61 0 -37 -4 -49 -15 -49 -12 0 -15 15 -15 75 0 60 3 75 15 75 8 0 15
-5 15 -12z m291 -9 c15 -15 19 -30 17 -62 -2 -35 -8 -44 -31 -55 -23 -11 -34
-11 -57 -2 -43 18 -55 85 -20 120 26 26 64 26 91 -1z m144 7 c15 -11 19 -27
20 -72 l0 -58 -40 -2 c-54 -3 -73 3 -80 27 -9 28 21 59 57 59 15 0 28 5 28 10
0 17 -29 23 -46 10 -12 -10 -17 -11 -27 -1 -9 10 -8 15 7 27 25 18 57 18 81 0z
m296 4 c32 -18 23 -33 -16 -26 -28 6 -35 4 -35 -9 0 -8 9 -15 19 -15 10 0 29
-8 41 -18 19 -16 21 -22 11 -40 -20 -38 -91 -41 -105 -5 -9 24 1 28 29 13 19
-10 28 -11 37 -2 9 9 3 15 -26 27 -45 19 -54 39 -31 65 20 22 46 25 76 10z
m-3587 -206 c3 -8 2 -12 -4 -9 -6 3 -10 10 -10 16 0 14 7 11 14 -7z m37 -61
c41 -65 42 -68 23 -48 -21 22 -54 71 -54 80 0 12 10 3 31 -32z m154 -141 c23
-11 58 -23 78 -27 20 -4 37 -11 37 -15 0 -24 -173 54 -207 93 -14 16 -10 15
17 -5 19 -14 53 -35 75 -46z m3590 -2 c-3 -5 -12 -10 -18 -10 -7 0 -6 4 3 10
19 12 23 12 15 0z m-58 -26 c-3 -3 -12 -4 -19 -1 -8 3 -5 6 6 6 11 1 17 -2 13
-5z m-2187 -24 c-646 -3 -1184 -2 -1195 2 -11 4 518 6 1175 5 l1195 -2 -1175
-5z m1393 3 c-13 -2 -33 -2 -45 0 -13 2 -3 4 22 4 25 0 35 -2 23 -4z m440 0
c-35 -2 -91 -2 -125 0 -35 2 -7 3 62 3 69 0 97 -1 63 -3z m-1768 -310 c-151
-6 -868 -8 -840 -2 17 4 228 6 470 6 242 -1 409 -2 370 -4z m1588 0 c5 -7
-462 -7 -1058 0 -126 1 59 3 412 5 353 1 644 -1 646 -5z m-2474 -17 c-2 -2
-17 -6 -34 -10 -22 -5 -26 -4 -15 4 14 9 59 15 49 6z m2558 -2 c-3 -3 -12 -4
-19 -1 -8 3 -5 6 6 6 11 1 17 -2 13 -5z m-2648 -27 c-2 -2 -21 -15 -41 -30
-21 -16 -38 -24 -38 -20 0 10 61 53 74 53 5 0 7 -1 5 -3z m-188 -204 c-12 -20
-14 -14 -5 12 4 9 9 14 11 11 3 -2 0 -13 -6 -23z m545 -44 c20 -16 -2 -32 -27
-18 -72 38 -165 -47 -139 -126 16 -48 53 -75 104 -75 54 0 92 37 102 98 7 43
20 54 31 26 10 -28 -16 -91 -52 -123 -42 -36 -93 -41 -149 -15 -48 24 -70 68
-64 131 5 54 23 81 73 108 33 18 96 15 121 -6z m-576 -84 c-7 -64 -7 -66 -8
-20 -2 45 7 101 13 93 1 -2 -1 -34 -5 -73z m650 68 c0 -15 -125 -133 -141
-133 -21 0 -53 36 -44 49 4 8 12 8 26 0 17 -8 28 -3 69 31 28 23 50 46 50 51
0 5 9 9 20 9 11 0 20 -3 20 -7z m740 -7 c0 -8 -5 -18 -11 -22 -14 -8 -33 11
-25 25 10 16 36 13 36 -3z m550 5 c0 -5 -9 -13 -20 -16 -23 -7 -27 -25 -5 -25
8 0 15 -7 15 -15 0 -8 -7 -15 -15 -15 -12 0 -15 -13 -15 -55 0 -42 -3 -55 -15
-55 -12 0 -15 13 -15 55 0 42 -3 55 -15 55 -8 0 -15 7 -15 15 0 8 7 15 15 15
8 0 15 8 15 18 0 10 3 22 7 25 10 11 63 8 63 -2z m-1048 -68 l25 -66 24 66
c22 61 26 67 51 67 l28 0 0 -90 c0 -83 -1 -90 -20 -90 -18 0 -20 7 -21 58 l-1
57 -21 -58 c-29 -77 -51 -75 -83 8 l-23 60 0 -62 c-1 -49 -4 -63 -16 -63 -12
0 -15 17 -15 90 0 88 0 90 24 90 20 0 27 -10 48 -67z m338 -23 c0 -73 -3 -90
-15 -90 -12 0 -15 17 -15 90 0 73 3 90 15 90 12 0 15 -17 15 -90z m77 70 c3
-11 12 -20 19 -20 19 0 18 -19 -1 -26 -10 -4 -15 -20 -15 -50 0 -32 4 -44 15
-44 8 0 15 -4 15 -10 0 -5 -13 -10 -29 -10 -33 0 -41 14 -41 71 0 21 -4 39
-10 39 -5 0 -10 7 -10 15 0 8 4 15 9 15 5 0 11 9 14 20 3 11 10 20 17 20 7 0
14 -9 17 -20z m303 -70 c0 -73 -3 -90 -15 -90 -12 0 -15 17 -15 90 0 73 3 90
15 90 12 0 15 -17 15 -90z m1000 70 c0 -11 7 -20 15 -20 8 0 15 -7 15 -15 0
-8 -7 -15 -15 -15 -11 0 -15 -11 -15 -40 0 -27 5 -43 15 -46 25 -10 17 -26
-12 -22 -26 3 -28 7 -31 56 -2 28 -7 52 -13 52 -5 0 -9 7 -9 15 0 8 5 15 10
15 6 0 10 9 10 20 0 11 7 20 15 20 8 0 15 -9 15 -20z m-1530 -70 c0 -38 4 -52
16 -57 24 -9 41 19 40 67 -1 32 3 40 17 40 14 0 17 -10 17 -69 l0 -68 -52 -2
c-32 0 -55 4 -60 12 -4 6 -8 38 -8 70 0 44 3 57 15 57 11 0 15 -12 15 -50z
m310 -20 c0 -63 -2 -70 -20 -70 -18 0 -20 7 -20 70 0 63 2 70 20 70 18 0 20
-7 20 -70z m143 53 c22 -21 23 -86 0 -108 -11 -11 -28 -15 -50 -13 -30 4 -33
2 -33 -24 0 -18 -5 -28 -15 -28 -12 0 -15 17 -15 93 l0 94 48 1 c30 0 53 -5
65 -15z m210 5 c9 -7 19 -25 23 -40 6 -28 6 -28 -45 -28 -37 0 -51 -4 -51 -14
0 -19 28 -28 50 -16 26 14 40 12 40 -4 0 -17 -22 -26 -65 -26 -35 0 -49 11
-58 49 -6 26 8 72 26 83 19 12 61 9 80 -4z m320 -20 c35 -47 3 -108 -58 -108
-26 0 -39 6 -51 25 -20 30 -12 89 14 105 29 17 73 7 95 -22z m117 17 c0 -7 -9
-15 -20 -18 -17 -4 -20 -14 -20 -56 0 -44 -3 -51 -20 -51 -18 0 -20 7 -20 69
l0 70 40 -1 c25 0 40 -5 40 -13z m116 4 c3 -5 13 -5 24 1 50 27 80 -1 80 -76
0 -47 -2 -54 -20 -54 -18 0 -20 7 -20 55 0 48 -2 55 -20 55 -18 0 -20 -7 -20
-55 0 -48 -2 -55 -20 -55 -18 0 -20 7 -20 56 0 47 -3 55 -17 52 -14 -2 -19
-15 -21 -56 -3 -44 -6 -52 -23 -52 -17 0 -19 7 -19 68 l0 69 45 1 c25 0 47 -4
51 -9z m232 -1 c7 -7 12 -38 12 -69 l0 -56 -55 -2 c-51 -1 -55 1 -61 25 -8 31
4 44 48 53 41 9 34 27 -9 24 -36 -3 -43 10 -15 26 23 14 65 14 80 -1z m223 2
c34 -19 22 -32 -21 -25 -49 8 -55 -10 -8 -23 69 -18 62 -75 -10 -80 -33 -2
-43 1 -52 17 -9 18 -8 21 8 21 10 0 23 -5 29 -11 12 -12 33 -4 33 11 0 5 -16
14 -35 20 -26 9 -35 17 -35 34 0 42 45 60 91 36z m-2741 -130 c0 -13 -1 -13
-10 0 -5 8 -10 22 -10 30 0 13 1 13 10 0 5 -8 10 -22 10 -30z m10 -40 c0 -5
-2 -10 -4 -10 -3 0 -8 5 -11 10 -3 6 -1 10 4 10 6 0 11 -4 11 -10z m85 -148
c16 -19 51 -47 77 -64 55 -36 62 -46 16 -22 -59 31 -169 149 -168 181 0 5 10
-8 23 -27 12 -19 35 -50 52 -68z m2810 -102 c-3 -5 -14 -10 -23 -9 -14 0 -13
2 3 9 27 11 27 11 20 0z m-2630 -10 c13 -5 14 -9 5 -9 -8 0 -24 4 -35 9 -13 5
-14 9 -5 9 8 0 24 -4 35 -9z m2115 -23 c124 -1 -288 -3 -915 -4 -627 -1 -1148
1 -1157 5 -16 6 1530 6 2072 -1z m373 -4 c-13 -2 -35 -2 -50 0 -16 2 -5 4 22
4 28 0 40 -2 28 -4z"/>
<path d="M2947 12334 c-4 -4 -7 -54 -7 -112 l0 -105 52 5 c66 7 88 31 88 97 0
67 -9 88 -38 100 -41 15 -87 23 -95 15z"/>
<path d="M1436 11081 c-38 -10 -74 -24 -80 -32 -6 -8 -24 -20 -40 -27 -24 -11
-26 -15 -15 -29 12 -15 12 -16 -5 -10 -20 8 -49 -10 -40 -24 3 -5 -1 -9 -8 -9
-35 0 -98 -155 -98 -239 0 -65 19 -151 32 -151 6 0 8 -3 5 -6 -7 -7 29 -63 48
-76 5 -4 6 -8 1 -8 -5 0 -3 -7 4 -15 7 -8 17 -12 23 -8 6 3 7 1 3 -6 -8 -12
16 -41 33 -41 6 0 11 -5 11 -10 0 -6 30 -25 68 -43 l67 -32 1830 0 1830 0 55
26 c118 57 195 154 226 286 15 65 11 173 -6 173 -5 0 -6 8 -4 18 6 20 -54 124
-99 170 -18 18 -52 44 -76 57 -103 58 11 55 -1920 54 -1677 0 -1780 -1 -1845
-18z m404 -217 c0 -2 -7 -4 -15 -4 -8 0 -15 4 -15 10 0 5 7 7 15 4 8 -4 15 -8
15 -10z m-80 -76 c11 -29 22 -42 38 -45 38 -5 62 -22 62 -43 0 -13 -7 -20 -20
-20 -11 0 -20 -4 -20 -8 0 -5 -10 -8 -22 -8 -19 1 -26 -8 -39 -49 -10 -27 -22
-51 -27 -53 -12 -4 -34 32 -39 62 -4 21 -21 46 -31 44 -19 -3 -71 16 -76 27
-6 15 35 45 61 45 28 0 40 12 48 50 15 73 37 73 65 -2z m80 27 c0 -7 7 -16 17
-19 14 -6 14 -9 -5 -26 -27 -25 -30 -25 -58 6 -20 21 -36 49 -18 31 3 -3 15 3
27 13 21 20 37 18 37 -5z m1254 -11 c4 -9 2 -22 -3 -28 -6 -6 -7 -17 -3 -23 4
-6 6 -40 4 -76 -3 -58 -6 -64 -23 -60 -16 5 -19 15 -19 74 0 44 4 69 11 69 8
0 8 5 -1 15 -15 18 -6 45 14 45 7 0 17 -7 20 -16z m-1409 -14 c-3 -5 -12 -10
-18 -10 -7 0 -6 4 3 10 19 12 23 12 15 0z m475 -4 c0 -10 -14 -16 -42 -18 -36
-2 -44 -7 -46 -25 -3 -21 1 -23 37 -23 23 0 41 -3 42 -7 0 -5 2 -16 4 -25 3
-19 -10 -25 -19 -9 -5 7 -25 8 -58 2 -5 0 -8 -17 -8 -36 0 -35 -6 -40 -32 -30
-9 4 -13 27 -11 88 1 45 2 85 2 90 1 4 30 7 66 7 50 0 65 -3 65 -14z m75 6
l-20 -5 20 -8 c19 -7 19 -8 -2 -8 -23 -1 -30 9 -16 22 3 4 13 6 22 6 11 -1 9
-3 -4 -7z m554 -21 c27 -37 27 -91 0 -125 -17 -22 -28 -26 -69 -26 -41 0 -52
4 -69 26 -27 34 -27 88 0 125 18 25 27 29 69 29 42 0 51 -4 69 -29z m243 -64
l3 -93 -27 4 -28 4 0 89 c0 88 0 89 24 89 24 0 25 -2 28 -93z m592 80 c28 -21
34 -108 10 -141 -17 -22 -26 -25 -81 -26 l-63 0 0 90 0 90 58 0 c33 0 66 -6
76 -13z m617 -44 l1 -58 14 33 c8 17 19 32 25 32 5 0 7 5 3 12 -5 8 -2 9 10 5
10 -4 28 -7 41 -7 34 0 55 -26 55 -66 0 -57 -14 -74 -63 -74 -46 0 -67 13 -67
42 0 10 -5 18 -11 18 -6 0 -9 -6 -6 -12 2 -7 1 -23 -4 -35 -6 -15 -14 -20 -28
-16 -19 5 -21 13 -21 94 0 88 0 89 25 89 24 0 25 -3 26 -57z m459 -33 c0 -100
5 -94 -75 -90 -52 2 -68 22 -62 79 6 50 19 63 65 58 28 -3 32 0 32 20 0 16 6
23 20 23 19 0 20 -7 20 -90z m-2500 70 c0 -5 -5 -10 -11 -10 -5 0 -7 5 -4 10
3 6 8 10 11 10 2 0 4 -4 4 -10z m257 4 c-3 -3 -12 -4 -19 -1 -8 3 -5 6 6 6 11
1 17 -2 13 -5z m-106 -18 c10 6 49 -32 49 -48 0 -4 5 -8 11 -8 5 0 8 4 4 9 -3
5 4 16 15 24 11 7 17 17 13 21 -6 6 46 -1 76 -10 7 -2 19 3 26 12 11 15 12 15
12 0 0 -9 -4 -16 -9 -16 -5 0 -5 -12 -2 -27 4 -16 7 -32 8 -37 0 -5 -20 -9
-46 -10 -47 -1 -62 -11 -34 -22 8 -3 23 -1 33 5 12 6 25 6 34 1 23 -15 -10
-40 -54 -42 -37 -1 -82 26 -71 43 3 5 0 17 -5 26 -6 10 -11 12 -11 6 0 -9 -16
-13 -45 -13 -25 0 -45 -5 -45 -10 0 -16 33 -26 38 -12 4 14 38 16 47 2 3 -5 0
-18 -6 -28 -9 -15 -21 -18 -55 -16 -24 2 -46 -1 -49 -6 -3 -6 -12 -10 -18 -10
-7 0 -4 5 6 11 13 8 15 14 7 30 -6 11 -15 17 -21 14 -11 -8 -11 -7 0 33 6 20
6 30 0 27 -5 -4 -9 0 -10 7 0 10 -2 10 -6 0 -2 -6 -8 -10 -13 -7 -11 7 -20
-41 -16 -82 2 -22 0 -30 -8 -25 -6 3 -15 7 -21 7 -11 0 -22 86 -17 122 3 18
11 21 54 21 39 1 49 -2 44 -14 -7 -18 8 -18 24 1 7 8 19 15 26 15 8 0 14 6 15
13 0 9 2 9 6 -1 2 -6 9 -9 14 -6z m54 4 c3 -6 -1 -7 -9 -4 -18 7 -21 14 -7 14
6 0 13 -4 16 -10z m92 4 c-3 -3 -12 -4 -19 -1 -8 3 -5 6 6 6 11 1 17 -2 13 -5z
m1990 0 c-3 -3 -12 -4 -19 -1 -8 3 -5 6 6 6 11 1 17 -2 13 -5z m-3310 -26 c-3
-8 -6 -5 -6 6 -1 11 2 17 5 13 3 -3 4 -12 1 -19z m1693 13 c0 -6 12 -6 29 -1
42 12 58 -11 63 -86 3 -58 2 -60 -19 -56 -20 4 -23 11 -23 48 0 24 -5 44 -11
44 -5 0 -7 5 -4 10 10 16 -11 12 -25 -5 -7 -8 -10 -31 -8 -51 4 -36 -16 -61
-38 -46 -12 9 -12 135 1 144 14 11 35 10 35 -1z m364 -2 c-2 -4 0 -10 6 -14 5
-3 10 -32 10 -64 0 -50 -3 -59 -20 -64 -18 -5 -20 0 -20 41 0 60 -12 81 -34
63 -10 -9 -16 -30 -16 -57 0 -37 -3 -44 -20 -44 -18 0 -20 7 -20 69 0 69 0 70
28 73 50 6 91 4 86 -3z m157 -15 c12 -11 19 -28 17 -43 -3 -24 -6 -26 -52 -24
-42 3 -47 1 -36 -12 9 -11 23 -14 46 -9 37 7 44 -5 18 -27 -22 -18 -86 -12
-99 9 -20 34 -21 67 -2 97 16 25 26 30 54 29 19 -1 43 -10 54 -20z m415 -26
c7 -23 -3 -85 -15 -93 -5 -3 -28 -6 -52 -7 -31 -1 -45 4 -55 17 -20 27 -18 89
4 108 37 33 103 20 118 -25z m141 10 c7 -36 23 -47 23 -16 0 28 9 42 33 51 16
6 18 3 14 -26 -3 -17 -11 -51 -18 -74 -18 -55 -51 -60 -69 -10 l-13 32 -9 -32
c-7 -21 -18 -33 -34 -36 -13 -2 -24 -1 -25 2 -4 34 -11 57 -19 59 -5 2 -6 10
-3 18 3 8 0 21 -7 29 -7 8 -9 15 -4 15 5 0 2 5 -6 10 -11 7 -8 10 16 10 34 0
43 -12 45 -58 1 -21 4 -17 15 19 12 39 18 46 35 42 12 -4 22 -17 26 -35z m573
32 c-10 -6 -11 -10 -2 -10 6 0 12 -6 12 -14 0 -8 4 -16 8 -18 4 -1 6 -24 4
-50 l-4 -48 -59 0 c-60 0 -65 3 -71 45 -2 15 7 23 40 34 23 9 42 19 42 23 0
11 -24 10 -35 -1 -6 -5 -18 -6 -27 -2 -39 14 17 45 92 50 13 1 13 0 0 -9z
m440 -15 c0 -8 -9 -17 -20 -20 -16 -5 -20 -15 -20 -56 0 -46 -2 -49 -25 -49
-24 0 -25 2 -25 71 0 71 0 71 25 67 14 -3 25 -2 25 2 0 5 9 6 20 3 11 -3 20
-11 20 -18z m-800 -11 c6 -14 10 -45 10 -70 0 -37 -3 -44 -20 -44 -16 0 -20 7
-20 38 0 42 -21 79 -38 68 -7 -4 -12 -29 -12 -55 0 -40 -4 -50 -19 -54 -18 -4
-20 2 -23 68 l-3 73 58 1 c53 0 59 -2 67 -25z m678 14 c5 -7 12 -24 14 -38 3
-23 0 -25 -44 -28 -27 -2 -48 -7 -48 -12 0 -13 22 -18 58 -12 24 3 32 1 32
-11 0 -31 -85 -38 -116 -9 -16 14 -19 25 -14 60 4 24 13 48 21 53 21 13 85 11
97 -3z m-2959 -48 c0 -10 -3 -8 -9 5 -12 27 -12 43 0 25 5 -8 9 -22 9 -30z
m728 18 c-3 -8 -6 -5 -6 6 -1 11 2 17 5 13 3 -3 4 -12 1 -19z m-953 -79 c8
-12 12 -32 10 -46 -3 -17 -1 -22 7 -17 8 4 9 3 5 -4 -4 -6 -13 -9 -22 -5 -12
4 -12 8 -2 21 11 13 10 14 -10 8 -16 -5 -22 -3 -22 7 0 9 -6 17 -12 20 -10 3
-10 7 1 20 18 22 27 21 45 -4z m1084 -36 c-10 -2 -26 -2 -35 0 -10 3 -2 5 17
5 19 0 27 -2 18 -5z m242 -28 c0 -2 -6 -5 -13 -8 -8 -3 -14 1 -14 8 0 7 6 11
14 8 7 -3 13 -6 13 -8z m-913 -1 c-3 -3 -12 -4 -19 -1 -8 3 -5 6 6 6 11 1 17
-2 13 -5z m203 -4 c-8 -5 -19 -10 -25 -10 -5 0 -3 5 5 10 8 5 20 10 25 10 6 0
3 -5 -5 -10z m2557 4 c-3 -3 -12 -4 -19 -1 -8 3 -5 6 6 6 11 1 17 -2 13 -5z"/>
<path d="M1720 10750 c-1 -14 -2 -32 -1 -40 1 -12 0 -12 -7 -2 -5 7 -16 10
-26 6 -15 -6 -15 -8 5 -18 13 -6 26 -22 29 -36 l6 -25 8 22 c4 13 5 27 1 33
-3 5 0 7 9 4 8 -3 23 -1 33 6 16 9 15 10 -6 4 -16 -4 -21 -3 -17 5 4 6 3 11
-1 11 -5 0 -14 12 -20 28 l-11 27 -2 -25z"/>
<path d="M2690 10748 c-11 -12 -20 -27 -20 -32 0 -6 5 -4 10 4 6 9 10 10 10 3
0 -6 -5 -15 -10 -18 -18 -11 9 -45 36 -45 14 0 22 4 19 10 -3 5 0 7 9 4 21 -8
31 33 15 63 -7 13 -19 21 -26 18 -8 -2 -11 0 -8 5 12 19 -14 10 -35 -12z"/>
<path d="M3535 10761 c-3 -6 -5 -33 -4 -61 l2 -52 31 6 c35 7 46 21 46 58 0
38 -58 76 -75 49z"/>
<path d="M4312 10721 c-22 -13 -11 -66 13 -66 16 0 20 7 20 34 0 36 -11 46
-33 32z"/>
<path d="M4612 10718 c-17 -17 -15 -43 4 -58 12 -11 18 -10 31 3 14 13 14 21
5 42 -13 28 -22 31 -40 13z"/>
<path d="M2320 10720 c-12 -7 -10 -9 7 -7 12 0 19 5 17 9 -6 10 -6 10 -24 -2z"/>
<path d="M2465 10720 c-4 -6 5 -10 20 -10 15 0 24 4 20 10 -3 6 -12 10 -20 10
-8 0 -17 -4 -20 -10z"/>
<path d="M3330 10720 c0 -5 7 -10 16 -10 8 0 12 5 9 10 -3 6 -10 10 -16 10 -5
0 -9 -4 -9 -10z"/>
<path d="M3723 10715 c-17 -19 -16 -40 2 -55 28 -23 57 28 33 57 -13 16 -20
16 -35 -2z"/>
<path d="M4463 10673 c-7 -2 -13 -9 -13 -14 0 -14 26 -10 40 6 10 12 10 15 -1
14 -8 0 -20 -3 -26 -6z"/>
<path d="M4765 10720 c-4 -6 5 -10 20 -10 15 0 24 4 20 10 -3 6 -12 10 -20 10
-8 0 -17 -4 -20 -10z"/>
<path d="M5273 9466 c-24 -20 -27 -31 -27 -78 0 -73 22 -108 68 -108 39 0 63
23 72 68 14 68 -20 142 -65 142 -11 0 -32 -11 -48 -24z"/>
<path d="M1228 9473 c-38 -45 -32 -53 42 -53 61 0 70 2 70 18 0 46 -81 70
-112 35z"/>
<path d="M1611 9464 c-11 -15 -18 -30 -15 -35 3 -5 36 -9 74 -9 62 0 69 2 63
18 -20 57 -86 71 -122 26z"/>
<path d="M2599 9471 c-34 -27 -40 -125 -9 -163 40 -52 104 -32 120 37 23 103
-44 180 -111 126z"/>
<path d="M3595 9355 c-5 -2 -22 -6 -37 -9 -31 -7 -45 -40 -28 -61 13 -16 67
-20 86 -7 15 10 34 47 34 66 0 15 -28 20 -55 11z"/>
<path d="M4871 9464 c-12 -15 -21 -31 -21 -35 0 -5 34 -9 75 -9 67 0 74 2 68
18 -20 57 -86 71 -122 26z"/>
<path d="M5871 9347 c-66 -23 -64 -77 3 -77 37 0 49 7 65 37 27 52 4 65 -68
40z"/>
<path d="M2490 8631 l0 -151 65 0 c56 0 69 3 95 28 40 35 53 92 40 164 -15 79
-42 101 -130 106 l-70 4 0 -151z"/>
<path d="M1150 8652 c-48 -39 -33 -170 21 -187 54 -17 99 28 99 100 0 87 -64
133 -120 87z"/>
<path d="M5301 8651 c-37 -37 -39 -116 -5 -168 22 -34 76 -31 104 5 18 22 21
37 18 84 -5 67 -27 98 -70 98 -15 0 -37 -9 -47 -19z"/>
<path d="M1583 8669 c-20 -7 -53 -45 -53 -61 0 -5 34 -8 75 -8 41 0 75 4 75 9
0 15 -39 58 -58 63 -10 3 -27 2 -39 -3z"/>
<path d="M1947 8650 c-37 -44 -29 -157 13 -180 59 -31 102 4 108 88 3 47 0 62
-18 85 -27 33 -77 37 -103 7z"/>
<path d="M2974 8649 c-14 -16 -19 -36 -19 -84 0 -76 20 -105 72 -105 27 0 37
6 54 33 25 40 22 126 -6 157 -24 27 -76 26 -101 -1z"/>
<path d="M4522 8663 c-24 -9 -44 -75 -37 -121 8 -52 35 -82 73 -82 56 0 80 44
73 135 -5 55 -58 89 -109 68z"/>
<path d="M4957 8539 c-54 -13 -77 -27 -77 -47 0 -44 74 -58 110 -22 19 19 29
81 13 79 -5 -1 -25 -5 -46 -10z"/>
<path d="M5734 8673 c-17 -3 -54 -49 -54 -67 0 -3 34 -6 75 -6 81 0 91 9 58
48 -20 22 -47 31 -79 25z"/>
<path d="M440 7520 l0 -90 35 0 c52 0 85 36 85 93 0 58 -27 87 -80 87 l-40 0
0 -90z"/>
<path d="M1810 7552 c-22 -8 -30 -23 -30 -62 0 -41 14 -60 47 -60 28 0 45 31
41 72 -3 33 -33 59 -58 50z"/>
<path d="M2350 7540 c-35 -35 -20 -110 23 -110 30 0 43 11 49 40 14 63 -33
109 -72 70z"/>
<path d="M4984 7550 c-26 -10 -37 -56 -21 -90 17 -36 68 -35 81 1 19 55 -15
106 -60 89z"/>
<path d="M670 7531 c-13 -25 -13 -44 2 -76 14 -31 62 -35 78 -6 14 26 13 74
-2 89 -19 19 -66 15 -78 -7z"/>
<path d="M1399 7519 c-10 -27 -10 -36 2 -58 30 -54 89 -32 89 34 0 38 -16 55
-51 55 -20 0 -30 -7 -40 -31z"/>
<path d="M1632 7479 c-40 -8 -46 -14 -39 -34 13 -33 84 -8 75 28 -2 9 -12 11
-36 6z"/>
<path d="M2542 7538 c-21 -21 -13 -28 34 -28 38 0 45 3 42 18 -4 21 -57 29
-76 10z"/>
<path d="M2753 7549 c-36 -14 -42 -89 -9 -111 21 -14 55 -8 66 12 28 53 -10
118 -57 99z"/>
<path d="M3682 7479 c-40 -8 -46 -14 -39 -34 13 -33 84 -8 75 28 -2 9 -12 11
-36 6z"/>
<path d="M3846 7541 c-32 -35 -13 -111 27 -111 33 0 47 19 47 61 0 52 -45 82
-74 50z"/>
<path d="M4060 7552 c-16 -5 -30 -21 -30 -34 0 -5 20 -8 45 -8 25 0 45 3 45 8
-1 23 -34 43 -60 34z"/>
<path d="M4610 7477 c-43 -15 -46 -41 -5 -45 29 -4 55 17 55 45 0 15 -4 15
-50 0z"/>
<path d="M5638 7549 c-22 -12 -31 -59 -19 -92 8 -21 17 -27 40 -27 34 0 51 22
51 68 0 41 -40 69 -72 51z"/>
<path d="M2511 6988 c-10 -27 -3 -64 14 -78 33 -28 77 38 55 80 -15 28 -58 26
-69 -2z"/>
<path d="M5069 6983 c-18 -49 22 -101 57 -72 10 8 14 26 12 53 -3 36 -6 41
-30 44 -23 3 -30 -2 -39 -25z"/>
<path d="M950 7001 c-24 -45 2 -113 40 -106 31 6 38 13 45 46 13 60 -58 110
-85 60z"/>
<path d="M1728 6985 c-20 -45 23 -103 56 -76 18 15 25 52 15 79 -12 32 -56 30
-71 -3z"/>
<path d="M2710 6996 c-11 -14 -7 -16 30 -16 29 0 40 4 38 13 -7 18 -53 20 -68
3z"/>
<path d="M3764 7012 c-34 -22 -34 -85 -1 -106 15 -9 22 -6 38 13 11 14 19 35
17 49 -3 28 -37 55 -54 44z"/>
<path d="M4495 6937 c-20 -16 -13 -37 14 -37 20 0 41 19 41 37 0 17 -31 17
-55 0z"/>
<path d="M4877 7004 c-15 -16 -5 -24 29 -24 24 0 34 4 32 13 -5 13 -50 22 -61
11z"/>
<path d="M5282 7004 c-26 -18 -29 -65 -6 -88 33 -33 64 -11 64 46 0 47 -26 65
-58 42z"/>
<path d="M5474 6994 c-20 -29 -11 -69 18 -88 41 -26 72 72 32 101 -25 18 -31
17 -50 -13z"/>
<path d="M4186 6474 c-22 -21 -20 -67 3 -95 16 -21 22 -22 45 -11 25 11 31 29
26 77 -4 44 -44 59 -74 29z"/>
<path d="M1330 6389 c0 -16 5 -20 27 -17 17 2 29 10 31 21 3 13 -3 17 -27 17
-25 0 -31 -4 -31 -21z"/>
<path d="M1532 6468 c-7 -7 -12 -26 -12 -44 0 -58 55 -74 73 -21 18 54 -26
100 -61 65z"/>
<path d="M1871 6407 c-31 -16 -28 -32 7 -32 20 0 28 5 30 23 4 25 -3 27 -37 9z"/>
<path d="M3300 6465 c-11 -13 -7 -15 28 -15 33 0 40 3 36 15 -4 8 -16 15 -29
15 -12 0 -28 -7 -35 -15z"/>
<path d="M3813 6410 c-26 -11 -30 -38 -7 -47 24 -9 64 14 64 37 0 22 -19 25
-57 10z"/>
<path d="M5110 6471 c-15 -29 -12 -77 6 -95 19 -20 35 -20 59 -2 22 16 26 76
6 100 -18 22 -58 20 -71 -3z"/>
<path d="M5607 6472 c-26 -28 -22 -32 34 -32 51 0 51 0 37 23 -20 29 -50 33
-71 9z"/>
<path d="M2561 5932 c-24 -57 14 -116 59 -92 24 13 35 49 25 82 -15 47 -66 53
-84 10z"/>
<path d="M2838 5879 c-36 -20 -10 -57 30 -42 37 14 44 53 10 53 -13 0 -31 -5
-40 -11z"/>
<path d="M3232 5948 c-7 -7 -12 -29 -12 -50 0 -70 78 -89 94 -22 8 29 -1 65
-18 76 -17 12 -51 9 -64 -4z"/>
<path d="M3172 5398 c-29 -29 -6 -98 32 -98 31 0 51 45 37 83 -11 29 -47 37
-69 15z"/>
<path d="M1163 5343 c-7 -2 -13 -13 -13 -24 0 -22 38 -27 58 -7 28 28 -2 49
-45 31z"/>
<path d="M1886 5395 c-9 -25 -9 -25 35 -25 33 0 40 3 37 18 -4 24 -63 29 -72
7z"/>
<path d="M2496 5395 c-9 -25 -9 -25 35 -25 33 0 40 3 37 18 -4 24 -63 29 -72
7z"/>
<path d="M2835 5337 c-23 -17 -12 -37 20 -37 21 0 45 24 45 44 0 11 -46 6 -65
-7z"/>
<path d="M3594 5396 c-10 -26 1 -79 19 -90 36 -23 67 23 53 80 -5 19 -13 24
-37 24 -16 0 -32 -6 -35 -14z"/>
<path d="M4032 5398 c-16 -16 -15 -60 1 -83 10 -13 21 -16 40 -11 49 12 44
106 -6 106 -13 0 -28 -5 -35 -12z"/>
<path d="M4288 5409 c-33 -19 -21 -39 23 -39 43 0 48 13 13 36 -13 9 -24 10
-36 3z"/>
<path d="M4553 5409 c-40 -15 -28 -39 17 -39 37 0 40 2 30 19 -14 27 -21 30
-47 20z"/>
<path d="M5252 5413 c-7 -3 -17 -13 -22 -24 -10 -17 -7 -19 35 -19 31 0 45 4
43 12 -6 17 -41 36 -56 31z"/>
<path d="M5422 5413 c-7 -3 -17 -13 -22 -24 -10 -17 -7 -19 35 -19 31 0 45 4
43 12 -6 17 -41 36 -56 31z"/>
<path d="M4827 3994 c-15 -15 -7 -63 12 -73 25 -14 44 8 39 46 -3 27 -34 44
-51 27z"/>
<path d="M2285 3980 c-10 -32 4 -60 30 -60 15 0 26 7 30 20 10 32 -4 60 -30
60 -15 0 -26 -7 -30 -20z"/>
<path d="M2605 3990 c-4 -6 7 -10 25 -10 18 0 29 4 25 10 -3 6 -15 10 -25 10
-10 0 -22 -4 -25 -10z"/>
<path d="M2754 3973 c-8 -29 6 -58 26 -58 20 0 34 29 26 58 -4 18 -13 27 -26
27 -13 0 -22 -9 -26 -27z"/>
<path d="M3294 3939 c-8 -14 14 -29 33 -22 7 3 13 11 13 19 0 17 -36 19 -46 3z"/>
<path d="M3590 3981 c-10 -20 -4 -51 14 -63 15 -10 46 10 46 32 0 49 -39 70
-60 31z"/>
<path d="M4060 3990 c0 -5 11 -10 25 -10 14 0 25 5 25 10 0 6 -11 10 -25 10
-14 0 -25 -4 -25 -10z"/>
<path d="M4204 3976 c-6 -25 10 -66 26 -66 19 0 41 34 36 54 -3 12 -6 24 -6
29 0 4 -11 7 -25 7 -18 0 -26 -7 -31 -24z"/>
<path d="M4675 3990 c-4 -6 7 -10 25 -10 18 0 29 4 25 10 -3 6 -15 10 -25 10
-10 0 -22 -4 -25 -10z"/>
<path d="M2566 2904 c-29 -28 -14 -114 19 -114 36 0 50 101 16 120 -15 7 -23
6 -35 -6z"/>
<path d="M2737 2908 c-27 -20 -21 -111 7 -116 42 -8 62 67 29 107 -16 19 -20
20 -36 9z"/>
<path d="M2887 2914 c-8 -8 1 -24 14 -24 5 0 9 7 9 15 0 15 -12 20 -23 9z"/>
<path d="M3403 2873 c-24 -9 -13 -23 18 -23 27 0 30 2 19 15 -13 16 -17 17
-37 8z"/>
<path d="M3550 2865 c-11 -13 -8 -15 20 -15 28 0 31 2 20 15 -7 8 -16 15 -20
15 -4 0 -13 -7 -20 -15z"/>
<path d="M3857 2862 c-29 -32 -15 -72 25 -72 34 0 35 76 2 87 -6 2 -18 -5 -27
-15z"/>
<path d="M4103 2865 c-17 -13 -16 -14 15 -15 33 0 43 13 18 23 -8 3 -22 -1
-33 -8z"/>
<path d="M4393 2873 c-24 -9 -13 -23 18 -23 27 0 30 2 19 15 -13 16 -17 17
-37 8z"/>
<path d="M3010 2805 c0 -8 5 -15 10 -15 6 0 10 7 10 15 0 8 -4 15 -10 15 -5 0
-10 -7 -10 -15z"/>
<path d="M3642 1738 c-28 -28 -3 -85 32 -72 27 10 15 84 -14 84 -3 0 -11 -5
-18 -12z"/>
<path d="M4681 1741 c-16 -11 -18 -58 -2 -74 28 -28 67 37 41 69 -14 16 -20
17 -39 5z"/>
<path d="M2370 1736 c-16 -20 -9 -56 13 -70 15 -9 21 -7 33 8 18 25 18 41 -2
60 -19 20 -28 20 -44 2z"/>
<path d="M2752 1738 c-28 -28 -3 -85 32 -72 22 8 22 70 0 78 -20 8 -18 8 -32
-6z"/>
<path d="M3073 1692 c-13 -2 -23 -8 -23 -13 0 -15 30 -23 42 -11 15 15 6 27
-19 24z"/>
<path d="M3803 1743 c-7 -2 -13 -20 -13 -38 0 -34 17 -49 45 -39 21 8 20 70
-1 78 -9 3 -16 6 -17 5 -1 0 -8 -3 -14 -6z"/>
<path d="M4368 1726 c-12 -28 -5 -54 17 -62 35 -14 61 46 33 74 -19 19 -37 14
-50 -12z"/>
<path d="M4542 1691 c-30 -8 -33 -25 -4 -29 13 -2 25 3 28 13 8 20 4 23 -24
16z"/>
<path d="M3162 608 c-16 -16 -15 -44 3 -62 20 -20 44 -10 51 20 10 41 -27 69
-54 42z"/>
<path d="M3376 611 c-7 -10 23 -20 42 -14 6 3 10 9 6 14 -7 12 -41 12 -48 0z"/>
<path d="M3681 598 c-10 -26 8 -63 29 -63 20 0 34 30 26 58 -8 34 -43 37 -55
5z"/>
<path d="M4163 555 c-3 -9 -2 -19 1 -23 8 -8 38 10 44 26 6 18 -38 14 -45 -3z"/>
</g>
</svg>
